<?xml version="1.0" encoding="utf-8"?>
<!-- Generator: Adobe Illustrator 21.0.0, SVG Export Plug-In . SVG Version: 6.00 Build 0)  -->
<svg version="1.1" id="Capa_1" xmlns="http://www.w3.org/2000/svg" xmlns:xlink="http://www.w3.org/1999/xlink" x="0px" y="0px"
	 viewBox="0 0 800 800" style="enable-background:new 0 0 800 800;" xml:space="preserve">
<style type="text/css">
	.st0{fill:#FF9966;}
	.st1{fill:#FF6600;}
	.st2{fill:#FF9966;stroke:#000000;stroke-miterlimit:10;}
	.st3{fill:none;stroke:#000000;stroke-miterlimit:10;}
	.st4{fill:none;stroke:#666666;stroke-miterlimit:10;}
	.st5{fill:#FF6633;}
</style>
<g>
	<rect x="0.5" y="0.5" class="st0" width="799" height="799"/>
	<g>
		<path d="M799,1v798H1V1H799 M800,0H0v800h800V0L800,0z"/>
	</g>
</g>
<g>
	<g>
		<path class="st1" d="M251.9,146.9c-2.2,0-4-0.7-5.7-2.1c-3.7-3.2-9.4-3.6-14-3.6c-2.3,0-4.6,0.1-6.8,0.2c-2.1,0.1-4.1,0.2-6,0.2
			c-3.1,0-6.8-0.2-8.4-2.1c-2.3-2.5-7.9-3.3-13.8-4.2c-8-1.2-16.3-2.4-16.8-7.6c-0.6-5.6-4.9-7.2-9.1-8.9c-3.1-1.2-6-2.3-7.2-5
			c-1.2-2.5-2.1-4.3-2.8-5.8c-1.8-3.5-2.5-4.7-2.5-9.7c0-9.6,3.7-11.5,7.1-13.1c2.4-1.2,4.7-2.3,4.8-6.2c4.6-10.2,11.3-13,34.2-14.1
			c0.7-0.1,1.3-0.2,2-0.2c1.3,0,2.5,0.2,3.9,0.4c1.4,0.2,2.8,0.5,4.3,0.5c3.1,0,5.8-1.1,8.5-3.6c2.9-1.2,5.7-1.8,8.4-1.8
			c3.3,0,6,0.9,8.5,1.7c2,0.7,3.8,1.3,5.6,1.3c1.6,0,3.1-0.5,4.6-1.6c3.2,1.1,6.8,1.7,11.4,1.7c2.5,0,4.8-0.1,7.1-0.3
			c1.9-0.1,3.8-0.2,5.4-0.2c4.2,0,6.2,0.8,6.7,2.7l0.1,0.2l2.2,1c9.6,4.4,17.1,7.9,22.8,7.8c0.6,0,1.1,0,1.6-0.1c0.2,0,0.3,0,0.5,0
			c2.6,0,5.3,2.8,8.3,5.7c3.4,3.4,7.2,7.2,11.5,7.5c5.4,4.1,5.9,8.6,6.4,12.6c0.3,3,0.7,5.9,3.2,7.9c2.6,6.1,1.3,10.2-0.2,12.5
			c-2.3,3.5-6.5,5.1-9.5,5.1c-0.2,0-0.3,0-0.5,0c-13,1.6-18,5.3-22.8,8.9c-3.6,2.7-7,5.2-13.5,6.6c-2.8-0.4-5.5-0.6-8.2-0.6
			c-8.7,0-15.6,2.1-21.1,3.9C257.9,145.9,254.6,146.9,251.9,146.9z"/>
		<path d="M231.7,61c3.2,0,5.9,0.9,8.3,1.7c2,0.7,3.9,1.3,5.8,1.3c1.7,0,3.2-0.5,4.7-1.5c3.2,1.1,6.8,1.6,11.3,1.6
			c2.5,0,4.9-0.1,7.1-0.3c1.9-0.1,3.8-0.2,5.4-0.2c3.9,0,5.8,0.7,6.3,2.4l0.1,0.4l0.4,0.2l2,0.9c9.6,4.4,17.2,7.9,23,7.9
			c0.6,0,1.1,0,1.7-0.1c0.1,0,0.3,0,0.4,0c2.3,0,5.1,2.7,7.9,5.6c3.4,3.4,7.2,7.2,11.6,7.6c5.2,4,5.6,8.3,6.1,12.1
			c0.3,3.1,0.7,6,3.3,8.1c1.9,4.6,1.9,8.7-0.2,11.9c-2.2,3.4-6.2,4.9-9.1,4.9c-0.2,0-0.3,0-0.5,0l-0.1,0l-0.1,0
			c-13,1.6-18.1,5.4-23,9c-3.5,2.6-6.9,5.1-13.2,6.5c-2.7-0.4-5.5-0.6-8.2-0.6c-8.8,0-15.7,2.1-21.3,3.9c-3.7,1.2-6.9,2.1-9.6,2.1
			c-2.1,0-3.8-0.6-5.3-1.9c-3.8-3.3-9.6-3.7-14.3-3.7c-2.3,0-4.6,0.1-6.8,0.2c-2.1,0.1-4.1,0.2-6,0.2c-3,0-6.5-0.2-8.1-1.9
			c-2.4-2.6-8.1-3.5-14.1-4.3c-7.8-1.1-15.9-2.3-16.4-7.2c-0.6-5.9-5.3-7.7-9.4-9.3c-3-1.2-5.8-2.3-7-4.7c-1.2-2.6-2.1-4.3-2.9-5.8
			c-1.8-3.4-2.4-4.6-2.4-9.5c0-9.3,3.6-11.1,6.8-12.6c2.5-1.2,5-2.4,5-6.5c4.5-10.1,10.9-12.6,33.7-13.7l0.1,0l0.1,0
			c0.6-0.1,1.2-0.2,1.8-0.2c1.2,0,2.5,0.2,3.8,0.4c1.4,0.2,2.8,0.5,4.4,0.5c3.2,0,6-1.2,8.8-3.7C226.4,61.5,229.1,61,231.7,61
			 M231.7,60c-2.5,0-5.3,0.5-8.6,1.9c-3,2.8-5.7,3.5-8.2,3.5c-2.8,0-5.5-0.9-8.1-0.9c-0.7,0-1.3,0.1-2,0.2
			c-22.7,1.1-29.9,3.7-34.7,14.5c0,8.8-11.9,2.3-11.8,19.4c0,7.2,1.4,6.8,5.4,15.6c3,6.5,15.3,4.4,16.3,13.7
			c1,9.7,25.6,6.4,30.8,12.1c1.6,1.8,4.9,2.2,8.8,2.2c3.9,0,8.4-0.4,12.8-0.4c5.3,0,10.4,0.6,13.7,3.4c1.8,1.6,3.8,2.2,6,2.2
			c7,0,16.3-6,30.9-6c2.6,0,5.3,0.2,8.2,0.6c15.3-3.3,13.8-12.7,36.3-15.5c0.2,0,0.4,0,0.5,0c6.6,0,15.4-6.5,10.2-18.5
			c-5.8-4.3,0.2-13.1-9.8-20.6c-7.9-0.4-14-13.2-19.9-13.2c-0.2,0-0.3,0-0.5,0c-0.5,0.1-1,0.1-1.5,0.1c-6,0-14.3-4-24.6-8.7
			c-0.8-2.5-3.5-3.1-7.2-3.1c-3.5,0-7.9,0.5-12.5,0.5c-3.9,0-7.8-0.4-11.5-1.7c-1.5,1.2-3,1.6-4.5,1.6C241.9,63,237.8,60,231.7,60
			L231.7,60z"/>
	</g>
	<path class="st2" d="M166.3,117.2c0,0-2.4,5.5-7.6,5.6c-5.2,0.1-10.6,7.8-10.6,7.8"/>
	<path class="st2" d="M183.1,132.4c0,0-3,9.7-8.8,8.9s-6.2,6.3-6.2,6.3"/>
	<path class="st2" d="M160.3,91.5c0,0-16.9-1.1-18.7-7.2c-1.8-6.2-7.2-2.8-7.2-2.8"/>
	<path class="st2" d="M176.1,70.9c0,0-9.4-2.4-7.7-5.1c1.6-2.7-6.2-4.1-6.2-4.1"/>
	<path class="st2" d="M207.6,64.5c0,0-3.5-4.9-1.2-4.3c2.2,0.7-1.2-4.3-1.2-4.3"/>
	<path class="st2" d="M212.6,141.3c0,0-3.2,5.5-1.9,7.6s-2,7.9-2,7.9"/>
	<path class="st2" d="M248.8,146.9c0,0-1.8,4.9,1.1,7c2.9,2.1,0.8,5,0.8,5"/>
	<path class="st2" d="M289.5,141.8c0,0,6,0.3,6.7,6s6.7,6,6.7,6"/>
	<path class="st2" d="M327.5,126c0,0,2.5,7.8,7.6,7.2c5.1-0.6,5.7,5.5,5.7,5.5"/>
	<path class="st2" d="M337.4,108.5c0,0,5.9,1.3,7.1-1.1c1.1-2.4,7.1-1.1,7.1-1.1"/>
	<path class="st2" d="M328.4,89c0,0,5-0.7,5.2-3.7c0.2-3,5.2-3.7,5.2-3.7"/>
	<path class="st2" d="M279.2,63.2c0,0-2.8-4.2-0.5-4.5c2.3-0.3-0.5-4.5-0.5-4.5"/>
	<path class="st2" d="M250.8,61.9c0,0-2.1-4.3,1.1-4.6c3.2-0.2,1.5-6.3,1.5-6.3"/>
	<path class="st3" d="M177.5,79.9c1-1.8,2-3.7,3.5-5.1c1.5-1.4,3.5-2.5,5.6-2.3"/>
	<path class="st3" d="M201,71.5c1.3-0.1,2.7-0.2,4-0.2"/>
	<path class="st3" d="M218.8,69.1c2.5-0.5,5.1-0.8,7.7-0.8"/>
	<path class="st3" d="M241,66.4c5.5,0.1,10.9,0.2,16.4,0.3"/>
	<path class="st3" d="M269.6,69.1c2.3-0.4,4.4,1.1,6.5,2.1c1.6,0.7,3.3,1.1,5,1.2c0.8,0,1.6,0,2.3,0.3c1.6,0.6,2.8,2.9,4.5,2.4"/>
	<path class="st3" d="M299.9,76.5c4.3,1.6,7.5,5.9,12,5.9c0.9,0,2-0.2,2.8,0.3c0.5,0.3,0.8,0.8,1.1,1.3c1.4,2.3,3.1,4.3,5,6.1"/>
	<path class="st3" d="M326.4,97.5c0.9,1.7,1.9,3.4,2.8,5.1"/>
	<path class="st3" d="M164.4,98.9c0-3.2,2.1-6.2,5-7.5"/>
	<path class="st4" d="M178.3,79.2c-0.6,1.3,0.2,2.9,1.2,4c1,1.1,2.3,1.9,3,3.2"/>
	<path class="st4" d="M217.6,73.6c1.3,2.7,0.3,5.9,0.9,8.9c0.5,2.3,1.9,4.3,3.1,6.3c1.1,2.1,2,4.6,1.1,6.7"/>
	<path class="st4" d="M257.4,73c0.3,1.6,0.6,3.1,0.9,4.7c0.4,2.3,0.9,4.6,0.4,6.9c-0.3,1.7-1.1,3.2-1.6,4.8c-0.5,1.6-0.8,3.4-0.1,5"
		/>
	<path class="st4" d="M290.2,81.9c1.4,3.4,1.6,7.2,1.1,10.9c-0.5,3.7-1.7,7.2-2.8,10.7"/>
	<path class="st3" d="M308.5,98.2c0.9,1.7-0.2,3.7-1.2,5.3c-1,1.6-2.1,3.7-1.1,5.3"/>
	<path class="st3" d="M169.3,90.9c1.9,0.5,2.8,2.6,3.3,4.6c0.5,1.9,0.9,4,2.5,5.2c1,0.8,2.3,1,3.5,1.4s2.5,1.2,2.8,2.4"/>
</g>
<g>
	<g>
		<path class="st5" d="M102.3,398.8c-1.2,0-2.1-0.2-2.7-0.7c-1.5-1.1-4.2-1.3-6.9-1.3c-0.8,0-1.7,0-2.6,0c-0.9,0-1.8,0-2.7,0
			c-4.2,0-8.2-0.4-8.9-3.1c-1-3.7-4.2-4.3-7-4.9c-2.1-0.4-4.1-0.9-5.1-2.4c-1-1.5-1.8-2.6-2.5-3.4c-1.6-2-2.1-2.7-2.6-6
			c-1.1-6.1,1.2-7.7,3.1-9.1c1.4-1,2.9-2.1,2.5-4.7c1.8-7,5.9-9.5,20.5-12.7c1.1-0.4,2.3-0.5,3.3-0.5l0.9,0c2.6,0,5.1-0.3,7.6-3.4
			c2.4-1.5,4.7-2.2,7.1-2.2c1.3,0,2.5,0.2,3.6,0.4c1,0.2,1.9,0.3,2.8,0.3c1.6,0,2.8-0.5,3.9-1.6c0.9,0.2,2,0.2,3,0.2
			c3.2,0,6.4-0.7,9.2-1.4c2.2-0.5,4-0.9,5.5-0.9c1.3,0,2.1,0.4,2.5,1.2l0.1,0.2l1.6,0.4c5.5,1.5,10.3,2.8,13.8,2.8
			c1.1,0,2.1-0.1,3-0.4c0.2-0.1,0.4-0.1,0.7-0.1c1.5,0,3.5,1.4,5.5,2.8c2.5,1.8,5.1,3.7,7.8,3.7c0.2,0,0.3,0,0.5,0
			c3.9,2.1,4.7,4.9,5.4,7.4c0.6,1.9,1.1,3.8,3,4.8c2.3,3.7,1.9,6.4,1.1,8.1c-1.2,2.6-3.8,3.9-5.8,4.1c-8.3,2.5-11.2,5.4-14,8.3
			c-2,2.1-4,4.1-8,5.7c-8.5,0.1-14.2,3-18.8,5.3c-2.8,1.4-5.1,2.5-7.1,2.5c-1,0-1.9-0.3-2.7-0.8c-1.4-0.8-3.1-1.2-5.3-1.2
			c-2.8,0-5.8,0.7-8.7,1.3C106.5,398.3,104.2,398.8,102.3,398.8z"/>
		<path d="M134.4,342.2c1.4,0,1.8,0.4,2,0.9l0.2,0.4l0.4,0.1l1.4,0.4c5.5,1.5,10.3,2.8,14,2.8c1.2,0,2.2-0.1,3.1-0.4
			c0.2,0,0.3-0.1,0.5-0.1c1.4,0,3.2,1.3,5.2,2.7c2.5,1.8,5.3,3.8,8.1,3.8c0.1,0,0.3,0,0.4,0c3.6,2,4.3,4.5,5,7
			c0.5,1.9,1.1,3.9,3.1,5.1c1.7,2.7,2.1,5.3,1,7.5c-1.1,2.4-3.5,3.7-5.4,3.9l-0.1,0l-0.1,0c-8.4,2.5-11.4,5.6-14.1,8.4
			c-2,2-3.9,4-7.7,5.5c-8.6,0.2-14.5,3.1-18.9,5.3c-2.8,1.4-4.9,2.5-6.9,2.5c-0.9,0-1.7-0.2-2.5-0.7c-1.5-0.9-3.3-1.3-5.5-1.3
			c-2.8,0-5.9,0.7-8.8,1.3c-2.5,0.5-4.8,1-6.6,1c-1.1,0-1.9-0.2-2.4-0.6c-1.6-1.2-4.4-1.4-7.2-1.4c-0.8,0-1.7,0-2.6,0
			c-0.9,0-1.8,0-2.7,0c-4,0-7.8-0.3-8.4-2.7c-1.1-4-4.6-4.7-7.4-5.3c-2-0.4-3.9-0.8-4.8-2.2c-1-1.5-1.8-2.6-2.5-3.5
			c-1.5-2-2-2.6-2.5-5.7c-1-5.8,1-7.2,2.9-8.6c1.5-1,3.1-2.2,2.7-5.1c1.8-6.8,5.7-9.1,20.1-12.2l0.1,0l0.1,0c1-0.4,2-0.4,3.1-0.4
			l0.5,0l0.5,0c2.6,0,5.3-0.3,7.9-3.6c2.3-1.4,4.5-2.1,6.8-2.1c1.3,0,2.4,0.2,3.6,0.4c1,0.2,1.9,0.3,2.9,0.3c1.6,0,2.9-0.5,4.1-1.5
			c0.9,0.1,1.9,0.2,2.8,0.2c3.3,0,6.5-0.7,9.3-1.4C131.2,342.6,133.1,342.2,134.4,342.2 M134.4,341.2c-3.4,0-9,2.3-14.6,2.3
			c-1.1,0-2.1-0.1-3.2-0.3c-1.2,1.3-2.4,1.6-3.7,1.6c-1.8,0-3.9-0.7-6.4-0.7c-2.1,0-4.6,0.5-7.5,2.3c-2.4,3.1-4.9,3.3-7.3,3.3
			c-0.3,0-0.6,0-0.9,0c-1.2,0-2.3,0-3.4,0.5c-14.7,3.2-19,5.6-21,13.2c1,5.7-7.5,2.8-5.6,13.9c0.8,4.7,1.6,4.3,5.2,9.6
			c2.6,3.9,10.4,1.2,12.1,7.1c0.8,3,4.9,3.4,9.4,3.4c1.8,0,3.6-0.1,5.3-0.1c2.8,0,5.3,0.2,6.6,1.2c0.7,0.6,1.8,0.8,3,0.8
			c4.1,0,10.3-2.3,15.5-2.3c1.9,0,3.6,0.3,5,1.2c1,0.6,2,0.9,3,0.9c5.5,0,12.1-7.6,26-7.8c9.6-3.8,7.6-9.7,21.9-14
			c4.4-0.5,9.8-5.7,5-13.1c-4.2-2.2-1.3-8.5-8.6-12.3c-0.2,0-0.4,0-0.6,0c-4.8,0-9.7-6.5-13.3-6.5c-0.3,0-0.5,0-0.8,0.1
			c-0.8,0.3-1.8,0.4-2.8,0.4c-3.8,0-8.9-1.5-15.1-3.2C136.9,341.5,135.8,341.2,134.4,341.2L134.4,341.2z"/>
	</g>
	<path class="st2" d="M68.1,388.5c0,0-1,3.9-4.4,4.5s-6.1,6.2-6.1,6.2"/>
	<path class="st2" d="M80.7,396.6c0,0-0.9,6.6-4.8,6.8c-3.9,0.2-3.3,4.8-3.3,4.8"/>
	<path class="st2" d="M61.4,372.5c0,0-11.1,1.1-12.9-2.7c-1.8-3.8-5-1-5-1"/>
	<path class="st2" d="M69.4,357.4c0,0-6.3-0.6-5.6-2.5s-4.5-2-4.5-2"/>
	<path class="st2" d="M89.3,349.8c0,0-2.8-2.8-1.3-2.6c1.5,0.2-1.3-2.6-1.3-2.6"/>
	<path class="st2" d="M100.7,399.2c0,0-1.5,3.9-0.4,5.1c1.1,1.2-0.4,5.4-0.4,5.4"/>
	<path class="st2" d="M124.9,398.9c0,0-0.7,3.4,1.5,4.5c2.1,1.1,1.1,3.2,1.1,3.2"/>
	<path class="st2" d="M150.8,391.2c0,0,3.9-0.4,5,3.2c1.1,3.6,5,3.2,5,3.2"/>
	<path class="st2" d="M173.7,376.9c0,0,2.5,4.8,5.7,3.9s4.3,2.9,4.3,2.9"/>
	<path class="st2" d="M178.3,364.4c0,0,4,0.2,4.5-1.5c0.5-1.7,4.5-1.5,4.5-1.5"/>
	<path class="st2" d="M170.4,352.7c0,0,3.2-1,3-3c-0.2-2,3-3,3-3"/>
	<path class="st2" d="M135.6,341.3c0,0-2.3-2.4-0.8-2.8s-0.8-2.8-0.8-2.8"/>
	<path class="st2" d="M117,343.5c0,0-1.8-2.6,0.2-3.1c2-0.5,0.3-4.3,0.3-4.3"/>
	<path class="st3" d="M71.4,363.1c0.5-1.3,0.9-2.6,1.7-3.7s2-2,3.4-2.1"/>
	<path class="st3" d="M85.7,355.1c0.9-0.2,1.7-0.4,2.6-0.6"/>
	<path class="st3" d="M97,351.6c1.6-0.6,3.3-1.1,4.9-1.4"/>
	<path class="st3" d="M111.1,347.4c3.6-0.5,7.1-1,10.7-1.5"/>
	<path class="st3" d="M130,346.1c1.4-0.5,3,0.3,4.4,0.7c1.1,0.3,2.3,0.4,3.4,0.2c0.5-0.1,1-0.2,1.5-0.1c1.1,0.2,2.2,1.6,3.2,1"/>
	<path class="st3" d="M150.5,347.7c2.9,0.6,5.5,3.1,8.5,2.5c0.6-0.1,1.3-0.3,1.8-0.1c0.3,0.1,0.6,0.5,0.8,0.7
		c1.1,1.3,2.5,2.5,3.9,3.4"/>
	<path class="st3" d="M170,358.4c0.8,1,1.6,2,2.4,3"/>
	<path class="st3" d="M64.9,376.8c-0.3-2.1,0.7-4.3,2.4-5.4"/>
	<path class="st4" d="M71.8,362.6c-0.3,0.9,0.4,1.9,1.2,2.5c0.8,0.6,1.7,1,2.3,1.8"/>
	<path class="st4" d="M96.7,354.7c1.2,1.6,0.8,3.8,1.5,5.7c0.6,1.4,1.7,2.6,2.7,3.8s1.8,2.8,1.4,4.3"/>
	<path class="st4" d="M122.5,350c0.4,1,0.7,2,1.1,3c0.5,1.4,1.1,2.9,1,4.4c0,1.1-0.4,2.2-0.5,3.3c-0.2,1.1-0.1,2.3,0.5,3.2"/>
	<path class="st4" d="M144.7,352.3c1.3,2,1.8,4.5,1.9,6.9s-0.3,4.8-0.7,7.2"/>
	<path class="st3" d="M158.4,360.8c0.8,1,0.3,2.4-0.2,3.6c-0.5,1.2-0.9,2.6-0.1,3.6"/>
	<path class="st3" d="M67.2,371.1c1.3,0.1,2.1,1.4,2.6,2.6c0.5,1.2,1,2.5,2.2,3.1c0.7,0.4,1.6,0.4,2.5,0.5s1.7,0.5,2.1,1.3"/>
</g>
<g>
	<g>
		<path class="st5" d="M677.9,329.3c-3.6-1.1-7.1-1.6-10.8-1.6c-3.2,0-6.1,0.4-8.5,0.8c-1.9,0.3-3.5,0.5-5,0.5h0
			c-2.2,0-3.7-0.6-4.8-1.9c-2.7-3.2-8.3-3.8-13.2-4.3c-4-0.4-7.8-0.8-9-2.6c-1.3-1.9-4.8-3-8.6-4.2c-5-1.5-10.1-3.1-10-6.4
			c0.2-3.8-2.6-5.4-5.1-6.8c-1.8-1.1-3.6-2.1-4.1-3.8c-0.5-1.8-0.9-3-1.3-4c-0.8-2.4-1.1-3.2-0.6-6.4c0.9-6.1,3.5-6.9,5.8-7.6
			c1.7-0.5,3.4-1,3.8-3.6c3-4.6,6.4-6.2,13.4-6.2c2.5,0,5.7,0.2,9.9,0.7c0.2,0,0.3,0,0.4,0c1.1,0,2.2,0.4,3.3,0.7
			c1.2,0.4,2.5,0.8,4,0.8c1.6,0,3.1-0.5,4.7-1.6c1.3-0.3,2.5-0.5,3.6-0.5c3.1,0,5.2,1.1,7.1,2.1c1.5,0.8,2.8,1.5,4.3,1.5h0
			c0.8,0,1.6-0.2,2.3-0.6c3.7,2,8.2,2.4,11.8,2.7c4,0.4,7.1,0.7,7.4,2.7l0,0.2l1.4,0.9c6.2,4.1,11.2,7.4,15,7.5
			c1.7,0,3.3,2.2,4.9,4.5c1.8,2.5,3.9,5.4,6.7,6c3,3.1,2.9,6,2.8,8.6c-0.1,2-0.2,3.9,1.3,5.5c0.8,3,0.4,5.6-1,7.5
			c-1.3,1.7-3.5,2.8-5.8,2.8c-0.5,0-0.9,0-1.3-0.1c-0.6,0-1.1,0-1.6,0c-7.5,0-10.9,1.8-14.2,3.5
			C684.6,327.8,682.1,329.1,677.9,329.3z"/>
		<path d="M620,271.6c2.5,0,5.6,0.2,9.8,0.7l0.1,0l0.1,0c0.1,0,0.2,0,0.3,0c1,0,2.1,0.3,3.2,0.7c1.3,0.4,2.6,0.9,4.1,0.9
			c1.6,0,3.3-0.5,4.9-1.6c1.2-0.3,2.4-0.4,3.4-0.4c2.9,0,5,1.1,6.8,2c1.5,0.8,2.9,1.5,4.6,1.5c0.8,0,1.6-0.2,2.3-0.5
			c3.7,1.9,8.2,2.3,11.8,2.7c3.6,0.3,6.7,0.6,7,2.3l0.1,0.4l0.4,0.2l1.2,0.8c6.3,4.2,11.3,7.5,15.3,7.6c1.4,0,3,2.2,4.5,4.3
			c1.9,2.5,4,5.4,6.8,6.2c2.8,3,2.6,5.6,2.5,8.1c-0.1,2-0.2,4,1.3,5.8c0.7,2.8,0.3,5.2-1,6.9c-1.5,1.9-3.8,2.6-5.4,2.6
			c-0.4,0-0.8,0-1.2-0.1l-0.1,0l-0.1,0c-0.5,0-1,0-1.5,0c-7.6,0-11.2,1.9-14.4,3.6c-2.5,1.3-4.9,2.5-9,2.8
			c-3.6-1.1-7.1-1.6-10.8-1.6c-3.3,0-6.1,0.4-8.6,0.8c-1.9,0.3-3.5,0.5-4.9,0.5c-2.1,0-3.4-0.5-4.4-1.8c-2.8-3.4-8.5-4-13.5-4.5
			c-3.7-0.4-7.6-0.8-8.6-2.4c-1.4-2-5-3.2-8.8-4.4c-4.6-1.4-9.8-3-9.6-5.9c0.2-4.1-2.9-5.8-5.3-7.3c-1.8-1-3.4-2-3.9-3.5
			c-0.5-1.8-0.9-3-1.3-4c-0.8-2.4-1.1-3.1-0.6-6.2c0.9-5.8,3.2-6.5,5.4-7.2c1.7-0.5,3.6-1.1,4.1-3.9C610,273,613.2,271.6,620,271.6
			 M620,270.6c-7.4,0-10.8,1.8-13.9,6.5c-0.9,5.7-7.9,0.3-9.6,11.3c-0.7,4.7,0.2,4.6,1.9,10.6c1.3,4.5,9.5,4.4,9.1,10.5
			c-0.3,6.3,15.8,6.7,18.6,10.9s17.4,1.3,22.2,6.9c1.4,1.6,3.1,2.1,5.2,2.1c3.4,0,7.8-1.3,13.5-1.3c3.2,0,6.7,0.4,10.7,1.7
			c9.9-0.5,10.2-6.4,23.5-6.4c0.5,0,1,0,1.5,0c0.5,0.1,0.9,0.1,1.4,0.1c4.2,0,9.3-3.4,7.3-11c-3.3-3.4,1.5-8.4-4.3-14.3
			c-5.2-1.1-7.9-10.5-11.9-10.5s-9.3-3.8-16-8.2c-0.7-4.6-12-1.6-19.7-5.9c-0.8,0.5-1.6,0.7-2.4,0.7c-3.2,0-5.8-3.6-11.4-3.6
			c-1.1,0-2.4,0.1-3.8,0.5c-1.7,1.1-3.2,1.5-4.5,1.5c-2.7,0-4.8-1.6-7.3-1.6c-0.1,0-0.2,0-0.3,0C626,270.8,622.8,270.6,620,270.6
			L620,270.6z"/>
	</g>
	<path class="st2" d="M599.9,301.3c0,0-2.1,3.3-5.5,2.8c-3.4-0.5-7.6,3.9-7.6,3.9"/>
	<path class="st2" d="M609.2,312.8c0,0-2.9,5.9-6.6,4.9s-4.6,3.4-4.6,3.4"/>
	<path class="st2" d="M598.6,284.1c0,0-10.8-2.4-11.3-6.6c-0.5-4.2-4.4-2.5-4.4-2.5"/>
	<path class="st2" d="M610.9,272.4c0,0-5.8-2.5-4.5-4.1s-3.6-3.3-3.6-3.3"/>
	<path class="st2" d="M631.9,271.5c0,0-1.7-3.5-0.4-2.9c1.4,0.7-0.4-2.9-0.4-2.9"/>
	<path class="st2" d="M627.3,321.5c0,0-2.6,3.2-2,4.7c0.7,1.5-2.1,4.9-2.1,4.9"/>
	<path class="st2" d="M650.1,328.8c0,0-1.7,3,0,4.6s0,3.3,0,3.3"/>
	<path class="st2" d="M676.9,329.6c0,0,3.8,0.8,3.7,4.5c-0.1,3.7,3.7,4.5,3.7,4.5"/>
	<path class="st2" d="M703,323.2c0,0,0.9,5.3,4.2,5.4s3.2,4.1,3.2,4.1"/>
	<path class="st2" d="M711.2,312.9c0,0,3.7,1.4,4.7,0c1-1.5,4.7,0,4.7,0"/>
	<path class="st2" d="M707.3,299.4c0,0,3.3,0,3.7-1.9c0.4-1.9,3.7-1.9,3.7-1.9"/>
	<path class="st2" d="M678.2,277.8c0,0-1.4-3,0.1-2.9c1.5,0,0.1-2.9,0.1-2.9"/>
	<path class="st2" d="M660,274.1c0,0-0.9-3,1.2-2.8s1.6-3.9,1.6-3.9"/>
	<path class="st3" d="M610.9,278.4c0.8-1.1,1.7-2.2,2.8-2.9s2.5-1.2,3.8-0.9"/>
	<path class="st3" d="M626.9,275.3c0.9,0.1,1.7,0.2,2.6,0.3"/>
	<path class="st3" d="M638.7,275.5c1.7-0.1,3.4,0,5.1,0.2"/>
	<path class="st3" d="M653.2,276c3.5,0.6,7,1.2,10.5,1.9"/>
	<path class="st3" d="M671.4,280.6c1.5-0.1,2.7,1.2,4,2c0.9,0.6,2,1,3.1,1.3c0.5,0.1,1,0.1,1.5,0.4c1,0.6,1.5,2.1,2.7,2"/>
	<path class="st3" d="M690.2,288.5c2.6,1.4,4.2,4.6,7.2,5c0.6,0.1,1.3,0.1,1.7,0.5c0.3,0.2,0.4,0.6,0.6,1c0.7,1.6,1.5,3.1,2.6,4.5"
		/>
	<path class="st3" d="M705.2,304.7c0.4,1.2,0.9,2.4,1.3,3.6"/>
	<path class="st3" d="M600.5,289.3c0.3-2,2-3.8,4-4.3"/>
	<path class="st4" d="M611.5,278c-0.5,0.8-0.2,1.9,0.3,2.7c0.5,0.8,1.3,1.5,1.6,2.4"/>
	<path class="st4" d="M637.4,278.3c0.6,1.9-0.4,3.9-0.3,5.8c0.1,1.5,0.8,2.9,1.4,4.4c0.5,1.4,0.8,3.1,0,4.5"/>
	<path class="st4" d="M663.1,281.9c0,1,0.1,2.1,0.1,3.1c0,1.5,0.1,3.1-0.4,4.5c-0.4,1-1,2-1.5,2.9c-0.5,1-0.9,2.1-0.6,3.2"/>
	<path class="st4" d="M683.4,291c0.6,2.3,0.3,4.8-0.4,7.1c-0.7,2.3-1.8,4.5-2.9,6.6"/>
	<path class="st3" d="M693.6,303.3c0.4,1.2-0.5,2.4-1.3,3.3c-0.8,0.9-1.7,2.2-1.2,3.3"/>
	<path class="st3" d="M604.5,284.6c1.2,0.5,1.6,2,1.7,3.3s0.2,2.7,1.1,3.6c0.6,0.6,1.4,0.9,2.1,1.2s1.5,1,1.5,1.8"/>
</g>
<g>
	<g>
		<path class="st5" d="M423.1,454.4c-2.9,0-5.3-0.8-7.6-2.6c-3.6-2.8-8.7-4.1-16.1-4.1c-4.5,0-9.2,0.5-13.7,0.9
			c-4.2,0.4-8.1,0.8-11.5,0.8c0,0,0,0,0,0c-4.7,0-7.7-0.8-9.4-2.5c-3.4-3.3-11.4-4.1-19.9-4.9c-11.6-1.1-23.6-2.2-24.8-9.8
			c-1.2-7.8-7.5-9.8-13.6-11.8c-4.6-1.5-8.9-2.9-10.8-6.7c-1.9-3.6-3.3-6-4.5-8c-2.8-4.8-3.9-6.5-4.3-13.8
			c-0.8-13.9,4.5-16.8,9.2-19.4c3.3-1.8,6.5-3.6,6.2-9.1c5.8-15.1,15.2-19.6,48-22.9c1.2-0.3,2.4-0.5,3.8-0.5c1.5,0,3,0.2,4.7,0.4
			c1.6,0.2,3.3,0.4,5,0.4c3.4,0,7.9-0.7,12.8-5.8c4.6-2.2,9-3.3,13.3-3.3c4.2,0,7.8,1,10.9,1.9c2.6,0.7,5.1,1.4,7.5,1.4
			c2.6,0,4.9-0.8,7-2.6c3.7,1.1,7.8,1.6,12.6,1.6c4.9,0,9.8-0.6,14.1-1.1c3.6-0.4,6.9-0.8,9.7-0.8c4.6,0,7.1,1.1,8,3.6l0.1,0.2
			l3.2,1.3c13.4,5.3,24,9.5,32,9.5c1.2,0,2.3-0.1,3.4-0.3c0.3-0.1,0.6-0.1,1-0.1c3.7,0,7.8,3.7,12.1,7.6c5.3,4.8,10.8,9.7,16.9,9.7
			c8.2,5.6,9.3,12,10.2,17.7c0.7,4.3,1.4,8.3,5.2,10.9c4.4,8.8,2.7,14.9,0.5,18.5c-3.3,5.4-9.4,7.8-14,7.8
			c-18.3,3.3-25.2,9-31.9,14.5c-5,4.1-9.7,8-18.9,10.5c-2.6-0.2-5.2-0.4-7.7-0.4c-14.4,0-25.2,4-33.9,7.2
			C432.2,452.6,427.3,454.4,423.1,454.4z"/>
		<path d="M390,332.2c4.1,0,7.7,1,10.8,1.9c2.7,0.7,5.2,1.4,7.6,1.4c2.7,0,4.9-0.8,7.1-2.6c3.7,1.1,7.8,1.6,12.5,1.6
			c4.9,0,9.8-0.6,14.1-1.1c3.6-0.4,6.9-0.8,9.7-0.8c4.5,0,6.7,1,7.6,3.3l0.2,0.4l0.4,0.2l3,1.2c13.5,5.3,24.1,9.6,32.2,9.6
			c1.2,0,2.4-0.1,3.4-0.3c0.3-0.1,0.6-0.1,0.9-0.1c0,0,0,0,0,0c3.5,0,7.5,3.6,11.8,7.5c5.1,4.6,10.8,9.7,17.1,9.9
			c7.9,5.4,9,11.7,9.9,17.3c0.7,4.3,1.4,8.4,5.3,11.1c4.2,8.6,2.6,14.5,0.4,17.9c-3.2,5.3-9.1,7.6-13.5,7.6h-0.1l-0.1,0
			c-18.3,3.3-25.3,9-32,14.6c-4.9,4.1-9.6,7.9-18.6,10.4c-2.6-0.2-5.2-0.4-7.7-0.4c-14.5,0-25.4,4-34.1,7.2
			c-5.6,2.1-10.4,3.8-14.5,3.8c-2.8,0-5.1-0.8-7.3-2.5c-3.7-2.9-8.9-4.2-16.4-4.2c-4.5,0-9.2,0.5-13.8,0.9
			c-4.1,0.4-8.1,0.8-11.5,0.8c-4.6,0-7.5-0.7-9.1-2.3c-3.5-3.5-11.6-4.2-20.2-5c-11.4-1.1-23.2-2.2-24.4-9.4
			c-1.3-8.1-8-10.3-13.9-12.2c-4.5-1.5-8.7-2.8-10.6-6.4c-1.9-3.6-3.3-6-4.5-8c-2.9-4.8-3.8-6.4-4.2-13.5c-0.8-13.6,4.4-16.4,9-19
			c3.3-1.8,6.7-3.7,6.5-9.4c5.7-14.8,15.1-19.3,47.6-22.5l0.1,0l0.1,0c1.1-0.3,2.2-0.4,3.6-0.4c1.5,0,3,0.2,4.6,0.4
			c1.6,0.2,3.3,0.4,5.1,0.4c3.4,0,8-0.7,13.1-5.9C381.5,333.3,385.7,332.2,390,332.2L390,332.2 M390,331.2c-3.9,0-8.4,0.9-13.6,3.4
			c-4.5,4.6-8.6,5.7-12.5,5.7c-3.3,0-6.5-0.8-9.7-0.8c-1.3,0-2.6,0.1-3.8,0.5c-32.4,3.3-42.5,7.6-48.5,23.4
			c0.7,12.6-16.9,4.2-15.5,28.6c0.6,10.3,2.5,9.7,8.9,22c4.7,9,22.3,5.1,24.3,18.3c2.2,13.8,37.1,7.3,44.9,15c2,2,5.5,2.6,9.8,2.6
			c7.2,0,16.7-1.8,25.3-1.8c6.1,0,11.8,0.9,15.8,4c2.5,1.9,5.1,2.7,7.9,2.7c10.7,0,24.7-11.1,48.6-11.1c2.5,0,5.1,0.1,7.8,0.4
			c21.7-5.8,18.8-19.2,50.7-24.9c0,0,0,0,0,0c9.6,0,22.5-10,13.9-27.2c-8.6-5.7-0.6-18.7-15.6-28.7c0,0,0,0-0.1,0
			c-11.1,0-20.8-17.4-29.1-17.4c-0.4,0-0.7,0-1.1,0.1c-1,0.2-2.1,0.3-3.3,0.3c-8.5,0-20.3-4.9-34.8-10.7c-1.1-3-4.2-3.9-8.5-3.9
			c-6.2,0-14.9,1.9-23.8,1.9c-4.3,0-8.6-0.4-12.7-1.7c-2.3,2-4.6,2.7-6.9,2.7C403.2,334.5,397.7,331.2,390,331.2L390,331.2z"/>
	</g>
	<path class="st2" d="M299.3,418c0,0-3.1,8.1-10.5,8.6s-14.6,11.9-14.6,11.9"/>
	<path class="st2" d="M324.6,438.6c0,0-3.5,14-11.9,13.5c-8.4-0.6-8.4,9.5-8.4,9.5"/>
	<path class="st2" d="M288.8,381.7c0,0-24.3-0.2-27.3-8.9c-3.1-8.7-10.5-3.4-10.5-3.4"/>
	<path class="st2" d="M309.8,351.1c0,0-13.6-2.8-11.4-6.7c2.1-3.9-9.2-5.4-9.2-5.4"/>
	<path class="st2" d="M354.5,339.6c0,0-5.3-6.8-2.1-6c3.2,0.8-2.1-6-2.1-6"/>
	<path class="st2" d="M367.4,449c0,0-4.2,8.2-2.1,11c2.1,2.9-2.2,11.5-2.2,11.5"/>
	<path class="st2" d="M419.5,454.4c0,0-2.3,7.1,2.1,10c4.4,2.8,1.5,7.1,1.5,7.1"/>
	<path class="st2" d="M477.5,444c0,0,8.6,0,10.1,8c1.5,8,10.1,8,10.1,8"/>
	<path class="st2" d="M530.6,418.5c0,0,4.2,11,11.4,9.8c7.2-1.2,8.6,7.4,8.6,7.4"/>
	<path class="st2" d="M543.4,392.7c0,0,8.6,1.4,10-2.1c1.4-3.6,10-2.1,10-2.1"/>
	<path class="st2" d="M529.1,365.5c0,0,7.2-1.4,7.2-5.7s7.2-5.7,7.2-5.7"/>
	<path class="st2" d="M456.8,332.4c0,0-4.3-5.7-1-6.3s-1-6.3-1-6.3"/>
	<path class="st2" d="M416,332.6c0,0-3.3-6,1.2-6.6c4.5-0.6,1.7-9.2,1.7-9.2"/>
	<path class="st3" d="M312.6,363.9c1.3-2.7,2.6-5.4,4.6-7.6c2-2.2,4.9-3.8,7.8-3.6"/>
	<path class="st3" d="M345.6,350.1c1.9-0.2,3.8-0.4,5.7-0.6"/>
	<path class="st3" d="M370.9,345.2c3.6-0.9,7.3-1.5,11-1.8"/>
	<path class="st3" d="M402.4,339.7c7.8-0.2,15.6-0.5,23.4-0.7"/>
	<path class="st3" d="M443.4,341.5c3.2-0.8,6.4,1.3,9.5,2.5c2.3,0.9,4.8,1.3,7.2,1.3c1.1,0,2.3-0.1,3.3,0.2c2.4,0.8,4.3,3.9,6.7,3"
		/>
	<path class="st3" d="M487.4,349.8c6.2,1.9,11.2,7.9,17.7,7.5c1.3-0.1,2.8-0.4,4,0.2c0.7,0.4,1.2,1.1,1.6,1.8c2.1,3.1,4.7,6,7.6,8.4
		"/>
	<path class="st3" d="M526.9,377.8c1.5,2.4,2.9,4.7,4.4,7.1"/>
	<path class="st3" d="M295.3,392c-0.2-4.5,2.5-9.1,6.5-11.1"/>
	<path class="st4" d="M313.7,362.9c-0.8,2,0.4,4.2,2,5.6s3.4,2.6,4.6,4.4"/>
	<path class="st4" d="M369.5,351.9c2.1,3.7,0.8,8.5,1.9,12.6c0.9,3.3,3.1,5.9,4.9,8.8c1.8,2.9,3.2,6.4,2.1,9.6"/>
	<path class="st4" d="M426.3,348c0.5,2.2,1.1,4.4,1.6,6.7c0.8,3.2,1.6,6.6,1.1,9.8c-0.3,2.4-1.3,4.7-2,7c-0.6,2.3-0.9,5,0.2,7.1"/>
	<path class="st4" d="M473.9,358.3c2.3,4.7,2.9,10.2,2.4,15.5s-1.9,10.4-3.3,15.5"/>
	<path class="st3" d="M501.3,380.1c1.4,2.4,0,5.3-1.4,7.7c-1.4,2.4-2.7,5.4-1.2,7.7"/>
	<path class="st3" d="M301.6,380.2c2.7,0.6,4.2,3.6,5.1,6.3s1.6,5.7,4,7.3c1.5,1,3.4,1.2,5.2,1.7s3.6,1.5,4.1,3.2"/>
</g>
<g>
	<g>
		<path class="st5" d="M205.2,737.6c-1.9,0-3.4-0.4-4.3-1.1c-2.2-1.7-6.3-1.9-10-1.9c-1.7,0-3.5,0.1-5.2,0.1
			c-1.8,0.1-3.7,0.1-5.4,0.1c0,0,0,0,0,0c-6,0-12.3-0.6-13.6-5c-1.6-5.7-6.5-6.6-11.1-7.6c-3.5-0.7-6.8-1.3-8.5-3.9
			c-1.7-2.4-3-4.1-4-5.5c-2.6-3.3-3.4-4.4-4.4-9.7c-1.8-10.1,1.8-12.7,5-15c2.3-1.7,4.5-3.3,3.8-7.3c2.9-11.6,9.4-15.7,33.1-21.1
			c2-0.8,4-0.8,6.2-0.8c4,0,8.5-0.1,12.7-5.6c4-2.6,7.8-3.8,11.9-3.8c2,0,3.9,0.3,5.7,0.5c1.5,0.2,3,0.4,4.3,0.4
			c2.6,0,4.5-0.8,6.3-2.6c1.4,0.2,3,0.4,4.6,0.4c5.3,0,10.5-1.3,15.1-2.4c3.6-0.9,6.6-1.6,9-1.6c2.2,0,3.5,0.6,4.2,2l0.1,0.2
			l2.5,0.7c8.8,2.3,16.3,4.2,22,4.2c1.9,0,3.5-0.2,4.9-0.7c0.4-0.1,0.8-0.2,1.2-0.2c2.6,0,5.7,2.2,9,4.5c4,2.8,8.2,5.7,12.4,5.7
			c0.3,0,0.6,0,1-0.1c6.5,3.3,7.8,7.9,9,12c0.9,3.1,1.8,6,4.8,7.6c4,6,3.3,10.6,2,13.4c-2,4.2-6.2,6.6-9.5,7
			c-13.2,4.1-17.8,8.9-22.2,13.6c-3.3,3.5-6.4,6.7-12.9,9.4c-13.7,0.4-22.8,5.1-30.1,8.8c-4.6,2.4-8.2,4.3-11.6,4.3
			c-1.6,0-3.1-0.4-4.5-1.3c-2.1-1.3-4.7-1.9-8-1.9c-4.5,0-9.5,1.1-14.3,2.2C212.1,736.7,208.2,737.6,205.2,737.6z"/>
		<path d="M256.2,644.7c2.5,0,3.3,0.9,3.7,1.7l0.2,0.4l0.4,0.1l2.3,0.6c8.8,2.3,16.4,4.3,22.1,4.3c2,0,3.6-0.2,5.1-0.7
			c0.3-0.1,0.7-0.2,1-0.2c2.4,0,5.5,2.2,8.7,4.4c4.1,2.9,8.3,5.8,12.7,5.8c0.3,0,0.6,0,0.9,0c6.2,3.2,7.5,7.7,8.6,11.6
			c0.9,3.2,1.8,6.1,5,7.8c3.8,5.8,3.1,10.2,1.9,12.9c-1.9,4.1-5.9,6.3-9.1,6.7l-0.1,0l-0.1,0c-13.3,4.1-17.9,9-22.3,13.7
			c-3.2,3.4-6.3,6.6-12.6,9.2c-13.8,0.4-23.3,5.3-30.2,8.9c-4.5,2.3-8.1,4.2-11.4,4.2c-1.5,0-2.9-0.4-4.2-1.2
			c-2.2-1.3-4.9-1.9-8.3-1.9c-4.6,0-9.6,1.1-14.4,2.2c-4.1,0.9-8,1.8-11,1.8c-1.8,0-3.2-0.3-4-1c-2.3-1.8-6.5-2-10.3-2
			c-1.7,0-3.5,0.1-5.2,0.1c-1.8,0.1-3.7,0.1-5.4,0.1c-5.8,0-11.9-0.6-13.1-4.6c-1.7-6-6.9-7-11.5-7.9c-3.4-0.7-6.5-1.3-8.2-3.7
			c-1.7-2.5-3-4.1-4.1-5.5c-2.5-3.2-3.4-4.3-4.3-9.5c-1.8-9.8,1.7-12.3,4.8-14.5c2.3-1.7,4.7-3.4,4-7.7c2.9-11.4,9-15.3,32.7-20.7
			l0.1,0l0.1,0c1.8-0.8,3.8-0.8,5.9-0.8c4.1,0,8.7-0.1,13.1-5.7c3.9-2.5,7.5-3.7,11.6-3.7c2,0,3.8,0.3,5.6,0.5
			c1.5,0.2,3,0.5,4.4,0.5c2.7,0,4.7-0.8,6.5-2.6c1.4,0.2,2.9,0.3,4.4,0.3c5.3,0,10.5-1.3,15.2-2.4
			C250.9,645.4,253.9,644.7,256.2,644.7 M256.2,643.7c-5.6,0-14.8,4-24.1,4c-1.6,0-3.2-0.1-4.8-0.4c-1.9,2.1-3.9,2.7-6.1,2.7
			c-2.9,0-6.1-1-10-1c-3.5,0-7.5,0.8-12.3,3.9c-6.3,8.3-12.9,4-18.7,6.3c-23.6,5.4-30.6,9.4-33.5,21.6c1.7,9.2-12,4.6-8.8,22.5
			c1.4,7.5,2.7,6.9,8.5,15.4c4.3,6.2,16.8,1.7,19.6,11.3c1.3,4.6,7.3,5.4,14.1,5.4c3.5,0,7.3-0.2,10.7-0.2c4.2,0,7.8,0.3,9.7,1.8
			c1.1,0.9,2.7,1.2,4.7,1.2c6.6,0,17-4.1,25.4-4.1c2.9,0,5.6,0.5,7.8,1.8c1.6,0.9,3.1,1.3,4.8,1.3c9,0,19.3-12.5,41.8-13.1
			c15.4-6.3,12.1-15.8,35.1-23c7.1-0.9,15.6-9.4,7.8-21.3c-6.8-3.4-2.2-13.7-14.1-19.7c-0.3,0-0.7,0.1-1.1,0.1
			c-7.6,0-15.6-10.2-21.4-10.2c-0.5,0-0.9,0.1-1.3,0.2c-1.4,0.4-3,0.6-4.8,0.6c-6.1,0-14.3-2.3-24.1-4.8
			C260,644.3,258.4,643.7,256.2,643.7L256.2,643.7z"/>
	</g>
	<path class="st2" d="M149.9,721.2c0,0-1.5,6.2-7,7.3c-5.4,1-9.7,10.1-9.7,10.1"/>
	<path class="st2" d="M170.4,734c0,0-1.3,10.6-7.6,11s-5.3,7.7-5.3,7.7"/>
	<path class="st2" d="M138.9,695.5c0,0-17.9,2-20.9-4.1c-3-6.1-8-1.6-8-1.6"/>
	<path class="st2" d="M151.6,671c0,0-10.2-0.8-9-3.9s-7.2-3.1-7.2-3.1"/>
	<path class="st2" d="M183.4,658.5c0,0-4.5-4.5-2.1-4.2s-2.1-4.2-2.1-4.2"/>
	<path class="st2" d="M202.8,737.8c0,0-2.4,6.4-0.6,8.3s-0.6,8.6-0.6,8.6"/>
	<path class="st2" d="M241.7,737c0,0-1,5.5,2.5,7.2s1.8,5.1,1.8,5.1"/>
	<path class="st2" d="M283.4,724.1c0,0,6.3-0.8,8.1,5c1.8,5.8,8.1,5,8.1,5"/>
	<path class="st2" d="M320.1,700.5c0,0,4.1,7.7,9.3,6.2c5.2-1.5,7,4.7,7,4.7"/>
	<path class="st2" d="M327.2,680.4c0,0,6.5,0.3,7.2-2.5s7.2-2.5,7.2-2.5"/>
	<path class="st2" d="M314.2,661.7c0,0,5.1-1.7,4.7-4.9c-0.4-3.2,4.7-4.9,4.7-4.9"/>
	<path class="st2" d="M258,643.9c0,0-3.7-3.8-1.3-4.6c2.3-0.7-1.3-4.6-1.3-4.6"/>
	<path class="st2" d="M228,647.7c0,0-3-4.1,0.3-5s0.4-6.9,0.4-6.9"/>
	<path class="st3" d="M154.8,680.2c0.7-2.1,1.4-4.2,2.7-6c1.3-1.8,3.2-3.2,5.4-3.4"/>
	<path class="st3" d="M177.8,667c1.4-0.3,2.8-0.7,4.1-1"/>
	<path class="st3" d="M195.9,661.2c2.6-1,5.2-1.8,7.9-2.3"/>
	<path class="st3" d="M218.6,654.2c5.7-0.9,11.4-1.8,17.2-2.7"/>
	<path class="st3" d="M249,651.8c2.3-0.9,4.8,0.4,7.2,1c1.8,0.5,3.6,0.6,5.4,0.3c0.8-0.1,1.6-0.3,2.5-0.2c1.8,0.4,3.5,2.5,5.2,1.6"
		/>
	<path class="st3" d="M282.1,653.9c4.7,0.8,9,4.8,13.7,3.9c1-0.2,2-0.6,2.9-0.2c0.6,0.2,1,0.7,1.4,1.2c1.9,2.1,4,4,6.4,5.5"/>
	<path class="st3" d="M313.7,670.9c1.3,1.6,2.6,3.2,3.9,4.8"/>
	<path class="st3" d="M144.6,702.4c-0.6-3.3,1-6.9,3.8-8.7"/>
	<path class="st4" d="M155.5,679.3c-0.4,1.5,0.7,3,2,4c1.3,0.9,2.8,1.6,3.8,2.8"/>
	<path class="st4" d="M195.5,666.2c1.9,2.6,1.4,6.2,2.6,9.1c0.9,2.3,2.8,4.1,4.4,6c1.6,1.9,2.9,4.4,2.4,6.9"/>
	<path class="st4" d="M237,658.1c0.6,1.6,1.2,3.2,1.8,4.7c0.9,2.3,1.8,4.7,1.7,7.1c0,1.8-0.6,3.6-0.8,5.3s-0.2,3.7,0.8,5.2"/>
	<path class="st4" d="M272.9,661.4c2.1,3.3,3,7.2,3.2,11.2c0.1,3.9-0.4,7.8-1,11.7"/>
	<path class="st3" d="M295.1,674.9c1.2,1.6,0.5,3.9-0.3,5.8c-0.8,1.9-1.5,4.2-0.1,5.7"/>
	<path class="st3" d="M148.2,693.2c2.1,0.2,3.4,2.2,4.3,4.1c0.9,1.9,1.7,4,3.6,5c1.2,0.6,2.6,0.6,4,0.8c1.3,0.2,2.8,0.7,3.3,2"/>
</g>
<g>
	<g>
		<path class="st5" d="M393.7,264.9c-2.3,0-4.1-0.7-5.6-2.1c-3.8-3.6-10.7-3.9-16.8-3.9c-0.8,0-3.7,0-4.4,0c-4.6,0-9.3-0.2-11.1-2.3
			c-2-2.4-7.2-3.4-12.6-4.4c-7.3-1.4-14.9-2.8-15.2-7.7c-0.3-5.2-4.4-7-8.1-8.6c-2.8-1.2-5.5-2.4-6.5-4.9c-1-2.4-1.8-4.1-2.4-5.4
			c-1.6-3.3-2.1-4.4-1.9-9c0.3-8.9,3.9-10.4,7-11.8c2.3-1,4.5-1.9,4.7-5.6c4.6-9.3,10.9-11.6,32.1-11.7c0.5-0.1,1-0.1,1.4-0.1
			c1.3,0,2.6,0.3,3.9,0.6c1.4,0.3,2.9,0.6,4.4,0.6c2.7,0,5.1-1,7.5-3c2.5-0.9,4.8-1.4,7.1-1.4c3.4,0,6.1,1,8.4,1.9
			c1.9,0.7,3.7,1.4,5.5,1.4c1.4,0,2.7-0.4,4-1.3c4.5,1.8,9.3,2,13.5,2c1.2,0,2.4,0,3.5,0c1.1,0,2.1,0,3,0c4.5,0,7.4,0.5,8,2.8
			l0.1,0.2l2,1c8.9,4.6,16,8.2,21.3,8.2c0.3,0,0.7,0,1,0c0.1,0,0.2,0,0.3,0c2.4,0,4.9,2.7,7.5,5.6c3,3.2,6.3,6.9,10.3,7.4
			c4.8,4,5.1,8.2,5.4,11.8c0.2,2.8,0.4,5.5,2.7,7.4c2.1,5.6,0.9,9.3-0.6,11.3c-1.9,2.7-5.3,4.5-8.7,4.5c-0.3,0-0.6,0-0.8,0
			c-12,1-16.8,4.2-21.5,7.4c-3.4,2.3-6.7,4.5-12.7,5.5c-3.2-0.6-6.5-0.9-9.7-0.9c-7.1,0-12.9,1.5-17.6,2.8
			C399,264.2,396.1,264.9,393.7,264.9z"/>
		<path d="M377.3,184.8c3.3,0,5.9,1,8.3,1.9c1.9,0.7,3.8,1.5,5.7,1.5c1.4,0,2.7-0.4,4-1.2c4.5,1.7,9.3,2,13.5,2c1.2,0,2.4,0,3.6,0
			c1,0,2.1,0,3,0c5,0,7.1,0.7,7.6,2.4l0.1,0.4l0.4,0.2l1.8,0.9c9,4.6,16.1,8.2,21.5,8.2c0.3,0,0.7,0,1,0c0.1,0,0.2,0,0.2,0
			c2.2,0,4.6,2.6,7.2,5.4c3,3.3,6.4,7,10.5,7.5c4.6,3.9,4.8,7.7,5.1,11.4c0.2,2.9,0.4,5.6,2.7,7.7c1.6,4.2,1.4,7.9-0.6,10.8
			c-1.8,2.6-5.1,4.3-8.3,4.3c-0.3,0-0.5,0-0.8,0l-0.1,0l-0.1,0c-12.1,1-16.9,4.3-21.6,7.5c-3.4,2.3-6.5,4.4-12.4,5.4
			c-3.2-0.6-6.5-0.9-9.7-0.9c-7.1,0-13,1.5-17.7,2.8c-3.3,0.9-6.1,1.6-8.5,1.6c-2.2,0-3.8-0.6-5.3-2c-4-3.7-10.9-4.1-17.2-4.1
			c-0.8,0-1.5,0-2.3,0c-0.7,0-1.4,0-2.2,0c-4.5,0-9.1-0.2-10.7-2.1c-2.1-2.5-7.4-3.5-12.9-4.6c-7.1-1.4-14.5-2.8-14.8-7.2
			c-0.3-5.5-4.6-7.4-8.4-9c-2.7-1.2-5.3-2.3-6.2-4.6c-1-2.4-1.8-4.1-2.4-5.5c-1.5-3.2-2-4.3-1.9-8.8c0.3-8.6,3.6-10,6.7-11.3
			c2.3-1,4.7-2,5-5.9c4.5-9.1,10.5-11.2,31.6-11.3l0.1,0l0.1,0c0.4-0.1,0.8-0.1,1.3-0.1c1.3,0,2.5,0.3,3.8,0.6
			c1.4,0.3,2.9,0.6,4.5,0.6c2.8,0,5.3-1,7.7-3.1C372.9,185.3,375.1,184.8,377.3,184.8 M377.3,183.8c-2.1,0-4.5,0.4-7.3,1.4
			c-2.7,2.3-5,2.9-7.2,2.9c-3,0-5.6-1.2-8.4-1.2c-0.5,0-1,0-1.5,0.1c-21,0.1-27.7,2.3-32.6,12c-0.3,8.1-11.1,1.6-11.7,17.4
			c-0.3,6.7,1,6.4,4.3,14.7c2.5,6.1,14,4.6,14.5,13.3c0.5,9,23.4,7,27.9,12.4c1.9,2.2,6.3,2.5,11.4,2.5c1.4,0,2.9,0,4.4,0
			c6.3,0,12.8,0.3,16.5,3.8c1.8,1.7,3.7,2.3,5.9,2.3c6,0,14.2-4.4,26.2-4.4c3,0,6.2,0.3,9.7,0.9c14.3-2.4,13.3-11.2,34.1-12.9
			c0.3,0,0.6,0,0.9,0c6.1,0,14-5.6,9.7-16.7c-5.2-4.2,0.7-12-8.3-19.4c-7.3-0.6-12.5-13-18-13c-0.1,0-0.2,0-0.3,0
			c-0.3,0-0.6,0-0.9,0c-5.6,0-13.2-4.1-22.9-9c-0.7-2.7-4-3.2-8.5-3.2c-2,0-4.2,0.1-6.6,0.1c-4.5,0-9.3-0.3-13.6-2.1
			c-1.4,1-2.6,1.3-3.9,1.3C387.3,187.2,383.5,183.8,377.3,183.8L377.3,183.8z"/>
	</g>
	<path class="st2" d="M315.3,234.1c0,0-2.5,5-7.3,4.9c-4.8-0.2-10.1,6.8-10.1,6.8"/>
	<path class="st2" d="M330.3,248.9c0,0-3.1,8.8-8.5,7.9c-5.4-0.9-6,5.6-6,5.6"/>
	<path class="st2" d="M310.8,210.2c0,0-15.6-1.6-17-7.4c-1.4-5.8-6.5-2.9-6.5-2.9"/>
	<path class="st2" d="M326.2,191.8c0,0-8.6-2.6-6.9-5c1.6-2.4-5.6-4-5.6-4"/>
	<path class="st2" d="M355.6,187.1c0,0-3-4.7-1-4c2,0.7-1-4-1-4"/>
	<path class="st2" d="M357.2,258.2c0,0-3.2,5-2.1,6.9c1.1,2-2.1,7.2-2.1,7.2"/>
	<path class="st2" d="M390.4,264.9c0,0-1.9,4.4,0.7,6.5c2.6,2.1,0.5,4.7,0.5,4.7"/>
	<path class="st2" d="M428.2,261.7c0,0,5.5,0.5,6,5.8c0.5,5.2,6,5.8,6,5.8"/>
	<path class="st2" d="M463.9,248.6c0,0,2,7.3,6.7,7c4.7-0.3,5.1,5.3,5.1,5.3"/>
	<path class="st2" d="M473.7,232.9c0,0,5.4,1.4,6.6-0.8s6.6-0.8,6.6-0.8"/>
	<path class="st2" d="M466.2,214.5c0,0,4.7-0.5,5-3.2c0.3-2.8,5-3.2,5-3.2"/>
	<path class="st2" d="M421.7,188.7c0,0-2.4-3.9-0.3-4.1c2.1-0.2-0.3-4.1-0.3-4.1"/>
	<path class="st2" d="M395.5,186.4c0,0-1.8-4.1,1.2-4.2c2.9-0.1,1.6-5.8,1.6-5.8"/>
	<path class="st3" d="M327.2,200.2c1-1.6,2-3.3,3.4-4.6c1.4-1.3,3.4-2.1,5.2-1.9"/>
	<path class="st3" d="M349.2,193.3c1.2,0,2.5,0,3.7-0.1"/>
	<path class="st3" d="M365.8,191.8c2.4-0.4,4.8-0.5,7.2-0.5"/>
	<path class="st3" d="M386.4,190.1c5,0.3,10.1,0.6,15.1,1"/>
	<path class="st3" d="M412.6,193.8c2.1-0.3,4,1.2,5.9,2.2c1.4,0.7,3,1.2,4.6,1.3c0.7,0.1,1.5,0,2.1,0.3c1.5,0.7,2.5,2.8,4.1,2.4"/>
	<path class="st3" d="M440.4,201.8c3.9,1.6,6.7,5.8,10.9,5.9c0.9,0,1.8-0.1,2.5,0.4c0.4,0.3,0.7,0.8,0.9,1.3
		c1.2,2.1,2.7,4.1,4.4,5.9"/>
	<path class="st3" d="M464,222.2c0.8,1.6,1.6,3.2,2.4,4.8"/>
	<path class="st3" d="M314.3,217.2c0.1-2.9,2.1-5.7,4.9-6.7"/>
	<path class="st4" d="M328,199.6c-0.6,1.2,0,2.7,0.9,3.7c0.9,1,2,1.9,2.7,3.1"/>
	<path class="st4" d="M364.5,195.9c1.1,2.5,0,5.5,0.5,8.2c0.3,2.2,1.6,4,2.6,6c1,1.9,1.6,4.3,0.7,6.3"/>
	<path class="st4" d="M401.2,196.9c0.2,1.5,0.4,2.9,0.6,4.4c0.3,2.1,0.6,4.3,0.1,6.4c-0.4,1.5-1.1,2.9-1.7,4.4
		c-0.6,1.5-0.9,3.1-0.3,4.6"/>
	<path class="st4" d="M431.1,206.5c1.2,3.2,1.2,6.7,0.6,10.1c-0.6,3.4-1.8,6.6-3,9.8"/>
	<path class="st3" d="M447.5,222.2c0.7,1.6-0.3,3.4-1.4,4.8c-1,1.4-2,3.3-1.2,4.9"/>
	<path class="st3" d="M319.2,210c1.7,0.6,2.5,2.6,2.9,4.3s0.7,3.8,2.1,4.9c0.9,0.7,2.1,1,3.2,1.4c1.1,0.4,2.2,1.2,2.5,2.3"/>
</g>
<g>
	<g>
		<path class="st5" d="M629,195.6c-2.4,0-4.5-0.8-6.4-2.6c-3.1-2.7-7.4-4-13.1-4c-4.5,0-9.3,0.8-13.9,1.5c-4.1,0.7-8.1,1.3-11.4,1.3
			h0c-3.6,0-6-0.8-7.4-2.4c-3.2-3.6-10.5-4.1-18.2-4.7c-10.5-0.8-21.3-1.6-22.7-10c-1.4-8.5-7.1-10.5-12.7-12.5
			c-4.2-1.5-8.1-2.9-10-7c-1.8-3.8-3.2-6.5-4.4-8.7c-2.8-5.2-3.8-7.1-4.5-15.1c-1.3-15.4,3.4-18.8,7.5-21.8
			c2.9-2.1,5.7-4.2,5.2-10.2c4.6-16.9,12.8-22.2,42.1-26.9c1.2-0.5,2.5-0.7,3.9-0.7c1.2,0,2.4,0.1,3.6,0.3c1.3,0.1,2.6,0.3,3.9,0.3
			c3.3,0,7.6-0.8,12-6.8c4.3-2.8,8.3-4.1,12.5-4.1c3.4,0,6.4,0.9,9.1,1.7c2.3,0.7,4.4,1.3,6.4,1.3c2.5,0,4.6-1,6.6-3.1
			c2.9,0.9,6.1,1.4,9.6,1.4c5,0,9.9-0.9,14.3-1.7c3.5-0.6,6.8-1.2,9.4-1.2c3.7,0,5.7,1.1,6.5,3.7l0.1,0.2l2.9,1.3
			c12,5.3,21.4,9.4,28.5,9.4c1.3,0,2.6-0.2,3.7-0.5c0.3-0.1,0.6-0.1,1-0.1c3.2,0,7,3.9,11,8c4.9,5,9.9,10.2,15.4,10.2
			c0.1,0,0.1,0,0.2,0c7.6,5.9,8.8,12.9,9.9,19.1c0.8,4.9,1.6,9.1,5.1,11.8c5.1,11.5,2.3,19,0.2,22.5c-2.6,4.2-7,7-11.1,7.2l-0.1,0
			l-0.1,0c-16.2,4.2-22.2,10.7-28,17c-4.3,4.7-8.3,9.1-16.5,12.2c-1.6-0.1-3.2-0.2-4.7-0.2c-14.1,0-24.3,5.1-32.4,9.1
			C637.3,193.4,632.9,195.6,629,195.6z"/>
		<path d="M650.8,60.4c3.5,0,5.3,1,6.1,3.4l0.1,0.4l0.4,0.2l2.7,1.2c12,5.3,21.5,9.5,28.7,9.5c1.4,0,2.7-0.2,3.8-0.5
			c0.3-0.1,0.6-0.1,0.8-0.1c3,0,6.7,3.8,10.6,7.8c5,5.1,10.1,10.3,15.7,10.3c0,0,0,0,0,0c7.3,5.7,8.5,12.6,9.6,18.7
			c0.8,4.7,1.6,9.2,5.2,12c5,11.2,2.2,18.5,0.1,21.9c-2.5,4.1-6.7,6.8-10.7,6.9l-0.1,0l-0.1,0c-16.4,4.3-22.4,10.8-28.2,17.2
			c-4.2,4.6-8.2,9-16.2,12c-1.6-0.1-3.1-0.2-4.7-0.2c-14.2,0-24.4,5.1-32.6,9.2c-5.1,2.5-9.4,4.7-13.2,4.7c-2.3,0-4.2-0.8-6.1-2.5
			c-3.2-2.8-7.6-4.2-13.4-4.2c-4.5,0-9.3,0.8-14,1.5c-4.1,0.7-8,1.3-11.3,1.3c-3.4,0-5.7-0.7-7-2.2c-3.3-3.7-10.7-4.3-18.5-4.9
			c-10.3-0.8-20.9-1.6-22.2-9.6c-1.5-8.8-7.6-11-13-12.9c-4.1-1.5-7.9-2.8-9.7-6.7c-1.8-3.9-3.2-6.5-4.4-8.7
			c-2.8-5.2-3.7-7-4.4-14.9c-1.3-15.1,3.3-18.4,7.3-21.3c3-2.2,5.9-4.3,5.4-10.5c2.4-8.9,5.8-14.1,11.7-17.8
			c5.8-3.7,14.5-6.2,30-8.7l0.1,0l0.1,0c1.1-0.4,2.2-0.6,3.7-0.6c1.2,0,2.3,0.1,3.5,0.3c1.3,0.1,2.6,0.3,3.9,0.3
			c3.4,0,7.8-0.8,12.4-7c4.1-2.7,8.1-4,12.1-4c3.3,0,6.3,0.9,9,1.7c2.3,0.7,4.5,1.3,6.6,1.3c2.6,0,4.7-1,6.7-3
			c2.9,0.9,6,1.3,9.5,1.3c5,0,10-0.9,14.4-1.7C644.9,61,648.2,60.4,650.8,60.4 M650.8,59.4c-6,0-14.8,2.9-23.7,2.9
			c-3.3,0-6.6-0.4-9.8-1.5c-2.1,2.4-4.2,3.2-6.4,3.2c-4.3,0-9.2-3-15.5-3c-3.7,0-7.9,1-12.8,4.3c-4.1,5.6-7.9,6.7-11.7,6.7
			c-2.5,0-5-0.5-7.5-0.5c-1.4,0-2.7,0.2-4,0.7c-29,4.7-37.8,9.8-42.5,27.4c1.2,13.9-15,5.2-12.7,32c1,11.3,2.6,10.6,8.9,23.9
			c4.6,9.8,20.2,4.8,22.6,19.4c2.5,15.1,33.6,6.8,40.9,15c1.7,1.9,4.4,2.6,7.8,2.6c7,0,16.7-2.9,25.3-2.9c4.9,0,9.4,0.9,12.7,3.9
			c2.2,1.9,4.4,2.7,6.8,2.7c10,0,22.6-13.9,45.8-13.9c1.6,0,3.2,0.1,4.8,0.2c19.2-7.2,16.1-21.8,44.5-29.2
			c8.6-0.3,19.8-11.8,11.3-30.4c-8-6-1.4-20.6-15.2-31.1c-0.1,0-0.2,0-0.4,0c-9.8,0-19-18.2-26.4-18.2c-0.4,0-0.7,0-1.1,0.1
			c-1.1,0.3-2.3,0.4-3.5,0.4c-7.6,0-18.1-4.9-31-10.6C656.7,60.4,654.2,59.4,650.8,59.4L650.8,59.4z"/>
	</g>
	<path class="st2" d="M516.8,159.7c0,0-2.4,9-9.1,9.8c-6.7,0.8-12.6,13.6-12.6,13.6"/>
	<path class="st2" d="M540.3,181.5c0,0-2.6,15.6-10.1,15.2c-7.5-0.3-7.1,10.7-7.1,10.7"/>
	<path class="st2" d="M505.8,120.1c0,0-21.8,0.6-24.9-8.9s-9.6-3.4-9.6-3.4"/>
	<path class="st2" d="M523.4,85.6c0,0-12.3-2.6-10.6-7c1.8-4.4-8.4-5.6-8.4-5.6"/>
	<path class="st2" d="M563,71.4c0,0-5.1-7.3-2.1-6.5s-2.1-6.5-2.1-6.5"/>
	<path class="st2" d="M579.2,191.5c0,0-3.4,9.1-1.5,12.2s-1.5,12.7-1.5,12.7"/>
	<path class="st2" d="M626.2,195.7c0,0-1.7,7.9,2.3,10.9c4,3,1.6,7.8,1.6,7.8"/>
	<path class="st2" d="M677.8,182.2c0,0,7.7-0.3,9.4,8.5c1.7,8.8,9.4,8.5,9.4,8.5"/>
	<path class="st2" d="M724.4,152.4c0,0,4.3,12,10.7,10.4c6.4-1.6,8.1,7.9,8.1,7.9"/>
	<path class="st2" d="M734.8,123.5c0,0,7.8,1.3,8.9-2.7c1.1-4,8.9-2.7,8.9-2.7"/>
	<path class="st2" d="M720.8,94c0,0,6.4-1.8,6.2-6.6c-0.2-4.7,6.2-6.6,6.2-6.6"/>
	<path class="st2" d="M654.5,60c0,0-4.1-6.2-1.2-6.9c2.9-0.8-1.2-6.9-1.2-6.9"/>
	<path class="st2" d="M617.9,61.6c0,0-3.2-6.5,0.8-7.3c4-0.8,1.1-10.1,1.1-10.1"/>
	<path class="st3" d="M526.5,99.6c1.1-3,2.1-6,3.9-8.5s4.2-4.3,6.9-4.3"/>
	<path class="st3" d="M555.5,83.3c1.7-0.3,3.4-0.6,5.1-0.9"/>
	<path class="st3" d="M578,77.1c3.2-1.1,6.5-1.9,9.8-2.3"/>
	<path class="st3" d="M606,69.9c7-0.5,14-1.1,21-1.6"/>
	<path class="st3" d="M642.9,70.5c2.9-1,5.8,1.2,8.6,2.4c2.1,0.9,4.3,1.3,6.6,1.2c1-0.1,2-0.2,3,0.1c2.2,0.8,4,4.1,6.1,3.1"/>
	<path class="st3" d="M682.8,78.1c5.6,1.9,10.4,8.4,16.2,7.7c1.2-0.1,2.5-0.6,3.6,0.1c0.7,0.4,1.1,1.2,1.5,1.9c2,3.4,4.5,6.4,7.2,9"
		/>
	<path class="st3" d="M719.3,107.6c1.4,2.6,2.8,5.1,4.2,7.7"/>
	<path class="st3" d="M512.1,131.2c-0.4-5,1.8-10.1,5.4-12.4"/>
	<path class="st4" d="M527.4,98.5c-0.6,2.2,0.6,4.6,2,6.1s3.2,2.7,4.3,4.7"/>
	<path class="st4" d="M577,84.5c2.1,4,1.1,9.3,2.2,13.8c0.9,3.6,3,6.4,4.8,9.5s3.1,6.9,2.3,10.5"/>
	<path class="st4" d="M627.8,78.2c0.6,2.4,1.2,4.9,1.7,7.3c0.8,3.5,1.7,7.2,1.4,10.8c-0.2,2.7-1,5.2-1.5,7.8s-0.6,5.5,0.5,7.8"/>
	<path class="st4" d="M670.9,88c2.3,5.1,3,11.1,2.8,17c-0.2,5.8-1.2,11.5-2.3,17.2"/>
	<path class="st3" d="M696.5,111c1.3,2.5,0.2,5.8-0.9,8.5s-2.2,6-0.7,8.5"/>
	<path class="st3" d="M517.3,118c2.5,0.6,3.9,3.8,4.8,6.7c0.9,2.9,1.7,6.2,3.9,7.9c1.4,1.1,3.1,1.2,4.7,1.7c1.6,0.5,3.3,1.5,3.9,3.4
		"/>
</g>
<g>
	<g>
		<path class="st5" d="M100.4,226.1c-0.7,0-1.3-0.2-1.7-0.5c-0.8-0.7-2.1-1-4.1-1c-1,0-2,0.1-3,0.1c-1.1,0.1-2.2,0.1-3.2,0.1h0
			c-3.2,0-4.8-0.8-5.4-2.5c-1.1-3.3-3.5-3.8-5.6-4.3c-1.5-0.3-3-0.6-3.9-2c-0.9-1.4-1.6-2.3-2.1-3.1c-1.3-1.8-1.8-2.4-2.4-5.4
			c-1.3-5.6,0.1-7.1,1.4-8.4c1-1,1.9-2,1.4-4.4c0.7-6.5,3.3-8.8,13.6-12.2l0,0l0,0c0.8-0.4,1.6-0.5,2.5-0.5c1.9-0.1,4-0.2,5.7-3.5
			c2.2-2,4-2.2,5.2-2.2c0.8,0,1.6,0.1,2.3,0.2c0.7,0.1,1.3,0.2,1.9,0.2c1.3,0,2.2-0.5,3-1.5c0.5,0.1,1.1,0.1,1.6,0.1
			c2.5,0,5-0.8,7.1-1.6c1.6-0.5,2.9-1,4-1c0.8,0,1.3,0.3,1.6,0.9l0.1,0.2l1.3,0.4c3.9,1.1,7.3,2.1,9.9,2.1c1,0,1.9-0.2,2.6-0.5
			c0.1-0.1,0.3-0.1,0.4-0.1c1,0,2.6,1.2,4.1,2.4c2,1.5,4,3.1,6,3.1c0.2,0,0.3,0,0.5,0c2.9,1.8,3.8,4.3,4.5,6.5
			c0.6,1.8,1.1,3.4,2.6,4.3c2.5,4,1.8,6.9,1.2,8.3c-0.7,1.6-2,2.7-3.4,3l-0.1,0l-0.1,0c-5.8,2.5-7.7,5.5-9.4,8.1
			c-1.3,2-2.5,3.8-5.1,5.4c-6.2,0.4-10.2,3.3-13.2,5.5c-1.9,1.4-3.5,2.5-4.9,2.5c-0.6,0-1.2-0.2-1.8-0.6c-1-0.7-2.2-1-3.6-1
			c-2.2,0-4.5,0.8-6.7,1.5C103.5,225.6,101.7,226.1,100.4,226.1z"/>
		<path d="M118.8,173.4c0.7,0,1,0.3,1.2,0.7l0.2,0.4l0.4,0.1l1.1,0.3c4,1.2,7.4,2.1,10,2.1c1.1,0,2-0.2,2.8-0.5c0.1,0,0.1,0,0.2,0
			c0.9,0,2.4,1.2,3.7,2.3c2,1.6,4.1,3.2,6.3,3.2c0.1,0,0.2,0,0.3,0c2.7,1.7,3.4,3.9,4.1,6.2c0.6,1.8,1.1,3.5,2.7,4.5
			c2.3,3.8,1.7,6.5,1.1,7.8c-0.6,1.4-1.8,2.5-3,2.7l-0.1,0l-0.1,0c-5.9,2.6-7.9,5.6-9.6,8.3c-1.3,2-2.4,3.7-4.9,5.1
			c-6.3,0.5-10.3,3.4-13.3,5.5c-1.9,1.3-3.3,2.4-4.6,2.4c-0.5,0-1-0.2-1.5-0.5c-1.1-0.7-2.4-1.1-3.9-1.1c-2.2,0-4.6,0.8-6.8,1.5
			c-1.8,0.6-3.5,1.2-4.8,1.2c-0.6,0-1-0.1-1.3-0.4c-1.2-1-3-1.2-4.4-1.2c-1,0-2,0.1-3.1,0.1c-1.1,0.1-2.1,0.1-3.1,0.1
			c-2.9,0-4.4-0.6-4.9-2.2c-1.1-3.6-3.8-4.2-5.9-4.6c-1.5-0.3-2.8-0.6-3.5-1.8c-0.9-1.4-1.6-2.3-2.1-3.1c-1.3-1.8-1.7-2.4-2.4-5.2
			c-1.3-5.3,0-6.7,1.3-7.9c1-1,2.1-2.2,1.6-4.8c0.7-6.2,3.2-8.4,13.3-11.7l0.1,0l0.1-0.1c0.6-0.4,1.4-0.4,2.3-0.4
			c1.9-0.1,4.2-0.2,6.1-3.7c2-1.8,3.6-2,4.8-2c0.8,0,1.5,0.1,2.2,0.2c0.7,0.1,1.3,0.2,2,0.2c1.4,0,2.4-0.5,3.2-1.5
			c0.4,0.1,0.9,0.1,1.4,0.1c2.6,0,5.1-0.8,7.3-1.6C116.4,173.9,117.8,173.4,118.8,173.4 M118.8,172.4c-2.6,0-6.7,2.6-11.1,2.6
			c-0.6,0-1.2-0.1-1.8-0.2c-0.8,1.3-1.7,1.6-2.7,1.6c-1.2,0-2.6-0.4-4.2-0.4c-1.6,0-3.5,0.5-5.6,2.4c-2.4,4.8-5.6,2.4-8.1,3.8
			c-10.3,3.4-13.3,5.8-14,12.7c1.2,5.2-5.2,2.8-2.8,12.9c1,4.3,1.6,3.9,4.6,8.6c2.2,3.5,7.7,0.7,9.4,6.1c0.8,2.4,3.1,2.9,5.8,2.9
			c2.1,0,4.3-0.3,6.2-0.3c1.6,0,2.9,0.2,3.8,0.9c0.5,0.5,1.2,0.6,2,0.6c3,0,7.7-2.7,11.6-2.7c1.2,0,2.3,0.3,3.3,0.9
			c0.7,0.5,1.4,0.7,2.1,0.7c4.1,0,8.1-7.3,18.2-8c6.6-3.8,4.6-9.1,14.6-13.5c3.1-0.6,6.6-5.6,2.4-12.2c-3.3-1.9-1.7-7.7-7.3-11
			c-0.2,0-0.4,0.1-0.6,0.1c-3.4,0-7.4-5.5-10-5.5c-0.2,0-0.4,0-0.6,0.1c-0.7,0.3-1.5,0.4-2.4,0.4c-2.7,0-6.4-1.1-10.8-2.4
			C120.4,172.7,119.7,172.4,118.8,172.4L118.8,172.4z"/>
	</g>
	<path class="st2" d="M74.8,217.8c0,0-0.4,3.6-2.8,4.2c-2.4,0.7-3.8,5.9-3.8,5.9"/>
	<path class="st2" d="M84.7,224.8c0,0-0.1,6.1-2.8,6.3s-2,4.4-2,4.4"/>
	<path class="st2" d="M68.6,203.4c0,0-7.9,1.4-9.6-2c-1.7-3.4-3.7-0.8-3.7-0.8"/>
	<path class="st2" d="M73,189.3c0,0-4.6-0.3-4.3-2.1s-3.4-1.7-3.4-1.7"/>
	<path class="st2" d="M86.7,181.8c0,0-2.3-2.5-1.2-2.4c1.1,0.1-1.2-2.4-1.2-2.4"/>
	<path class="st2" d="M99.4,226.5c0,0-0.7,3.7,0.2,4.7c0.9,1.1,0.2,4.9,0.2,4.9"/>
	<path class="st2" d="M116.9,225.6c0,0-0.2,3.1,1.5,4s1.1,2.9,1.1,2.9"/>
	<path class="st2" d="M135,217.7c0,0,2.8-0.5,3.9,2.7s3.9,2.7,3.9,2.7"/>
	<path class="st2" d="M150.3,203.8c0,0,2.2,4.3,4.5,3.4s3.4,2.5,3.4,2.5"/>
	<path class="st2" d="M152.5,192.3c0,0,2.9,0.1,3.1-1.5c0.2-1.6,3.1-1.5,3.1-1.5"/>
	<path class="st2" d="M145.6,181.8c0,0,2.2-1,1.9-2.8s1.9-2.8,1.9-2.8"/>
	<path class="st2" d="M119.4,172.5c0,0-1.9-2.1-0.8-2.6s-0.8-2.6-0.8-2.6"/>
	<path class="st2" d="M106.2,175.1c0,0-1.6-2.3-0.1-2.8c1.4-0.5-0.2-3.9-0.2-3.9"/>
	<path class="st3" d="M74.9,194.5c0.2-1.2,0.4-2.4,0.9-3.4s1.3-1.9,2.3-2"/>
	<path class="st3" d="M84.6,186.7c0.6-0.2,1.2-0.4,1.8-0.6"/>
	<path class="st3" d="M92.5,183.1c1.1-0.6,2.3-1.1,3.4-1.4"/>
	<path class="st3" d="M102.3,178.9c2.5-0.6,5.1-1.2,7.6-1.7"/>
	<path class="st3" d="M115.8,177.1c1-0.5,2.2,0.1,3.3,0.5c0.8,0.2,1.7,0.3,2.5,0.1c0.4-0.1,0.7-0.2,1.1-0.1c0.8,0.2,1.7,1.3,2.4,0.8
		"/>
	<path class="st3" d="M130.8,177.8c2.2,0.4,4.3,2.6,6.4,2.1c0.4-0.1,0.9-0.4,1.3-0.1c0.3,0.1,0.5,0.4,0.7,0.7c0.9,1.2,2,2.2,3.1,3"
		/>
	<path class="st3" d="M145.9,187.1c0.7,0.9,1.3,1.8,2,2.7"/>
	<path class="st3" d="M71.5,207.2c-0.4-1.9,0.1-3.9,1.3-5"/>
	<path class="st4" d="M75.2,194c-0.1,0.9,0.5,1.7,1.1,2.2s1.3,0.9,1.8,1.5"/>
	<path class="st4" d="M92.5,186c1,1.4,0.9,3.5,1.6,5.1c0.5,1.3,1.5,2.3,2.3,3.4c0.8,1.1,1.5,2.5,1.4,3.9"/>
	<path class="st4" d="M110.7,180.8c0.4,0.9,0.7,1.8,1.1,2.7c0.5,1.3,1,2.6,1.1,4c0.1,1-0.1,2-0.1,3c0,1,0.1,2.1,0.6,2.9"/>
	<path class="st4" d="M127.1,182.2c1.1,1.8,1.7,4.1,2,6.3s0.2,4.4,0.2,6.6"/>
	<path class="st3" d="M137.7,189.6c0.6,0.9,0.4,2.2,0.2,3.3s-0.4,2.4,0.2,3.3"/>
	<path class="st3" d="M72.6,201.9c0.9,0.1,1.7,1.2,2.1,2.3c0.5,1.1,1,2.3,1.9,2.8c0.6,0.3,1.2,0.3,1.8,0.4c0.6,0.1,1.3,0.4,1.6,1.1"
		/>
</g>
<g>
	<g>
		<path class="st5" d="M610.2,745.9c-1.2,0-2.2-0.2-2.9-0.7c-1.2-0.8-3-1.2-5.6-1.2c-2.3,0-4.9,0.3-7.7,0.6
			c-2.8,0.3-5.7,0.7-8.3,0.7c0,0,0,0,0,0c-4.8,0-7.5-1.2-8.4-3.7c-1.9-5.1-6.4-5.6-10.3-6.1c-3-0.4-5.9-0.7-7.6-2.9
			c-1.7-2.1-2.9-3.5-4-4.7c-2.5-2.8-3.3-3.8-4.6-8.5c-2.5-9,0.4-11.6,3-13.9c1.9-1.7,3.6-3.3,2.7-7c1.5-10.7,6.7-14.9,26.6-21.4
			c1.6-0.9,3.4-1,5.2-1.2c3.4-0.3,7.3-0.7,10.5-6c4.7-3.8,8.6-4.3,11.5-4.3c1.1,0,2.2,0.1,3.3,0.2c1,0.1,1.8,0.1,2.7,0.1
			c2,0,4.3-0.3,6.3-2.9c0.6,0.1,1.3,0.1,1.9,0.1c5.2,0,10.3-1.8,14.8-3.3c3.3-1.1,6.1-2.1,8.2-2.1c1.5,0,2.4,0.5,3.1,1.5l0.1,0.2
			l2.3,0.4c6.8,1.3,12.7,2.4,17.3,2.4c2.6,0,4.6-0.3,6.2-1c0.4-0.2,0.8-0.3,1.3-0.3c2.1,0,4.9,1.7,7.8,3.5c3.5,2.1,7.1,4.3,10.6,4.3
			c0.5,0,1,0,1.4-0.1c5.8,2.5,7.4,6.6,8.8,10.2c1.1,2.7,2,5.3,4.8,6.6c4.1,5.4,3.7,9.7,2.7,12.4c-1.4,3.8-4.7,6-7.4,6.6
			c-11.1,4.7-14.6,9.4-18,13.9c-2.5,3.4-4.9,6.5-10.2,9.4c-11.8,1.3-19.2,6.2-25.1,10.1c-4,2.6-7.1,4.7-10.2,4.7
			c-1.1,0-2.2-0.3-3.3-0.9c-1.6-0.8-3.4-1.2-5.5-1.2c-4.3,0-9.1,1.6-13.7,3.1C616.5,744.7,612.9,745.9,610.2,745.9z"/>
		<path d="M647.5,658.2c1.3,0,2.1,0.4,2.6,1.3l0.2,0.4l0.4,0.1l2,0.4c6.8,1.3,12.7,2.4,17.4,2.4c2.6,0,4.7-0.4,6.4-1.1
			c0.3-0.1,0.7-0.2,1.1-0.2c2,0,4.7,1.6,7.5,3.4c3.5,2.2,7.2,4.4,10.8,4.4c0.5,0,0.9,0,1.4-0.1c5.5,2.5,7,6.4,8.3,9.8
			c1.1,2.8,2.1,5.5,5,6.8c3.8,5.1,3.5,9.2,2.6,11.8c-1.3,3.6-4.5,5.7-7,6.3l-0.1,0l-0.1,0c-11.1,4.7-14.8,9.7-18.1,14
			c-2.5,3.3-4.8,6.4-10,9.2c-11.8,1.3-19.6,6.5-25.2,10.2c-3.9,2.6-7,4.6-9.9,4.6c-1.1,0-2.1-0.3-3.1-0.8c-1.6-0.8-3.5-1.3-5.8-1.3
			c-4.4,0-9.2,1.6-13.8,3.1c-3.8,1.3-7.4,2.5-10.1,2.5c-1.1,0-2-0.2-2.6-0.6c-1.3-0.9-3.2-1.3-5.8-1.3c-2.3,0-5,0.3-7.8,0.6
			c-2.8,0.3-5.7,0.6-8.3,0.6c-4.6,0-7.1-1.1-7.9-3.4c-2-5.4-6.6-5.9-10.7-6.4c-2.9-0.4-5.7-0.7-7.3-2.7c-1.7-2.1-2.9-3.6-4-4.7
			c-2.4-2.8-3.3-3.7-4.5-8.3c-2.4-8.7,0.4-11.2,2.8-13.4c1.9-1.7,3.8-3.5,2.8-7.4c1.5-10.5,6.4-14.4,26.3-20.9l0.1,0l0.1,0
			c1.5-0.8,3.2-0.9,4.9-1.1c3.5-0.3,7.6-0.7,10.9-6.2c4.5-3.7,8.3-4.1,11.1-4.1c1.1,0,2.2,0.1,3.2,0.2c1,0.1,1.9,0.1,2.8,0.1
			c2.1,0,4.5-0.4,6.5-2.8c0.6,0,1.1,0.1,1.7,0.1c5.3,0,10.4-1.8,14.9-3.3C642.6,659.2,645.4,658.2,647.5,658.2 M647.5,657.2
			c-5.1,0-14,5.4-23,5.4c-0.7,0-1.4,0-2.2-0.1c-1.7,2.4-3.7,2.9-6,2.9c-1.8,0-3.8-0.3-6-0.3c-3.4,0-7.4,0.7-11.9,4.5
			c-4.7,8-10.7,4.5-15.5,7.1c-19.8,6.5-25.5,10.7-27,21.9c2.2,8.2-10,5-5.6,21c1.8,6.7,2.9,6.1,8.7,13.3c4.2,5.3,14.6,0.4,17.8,8.8
			c1.2,3.2,4.7,4,8.9,4c5.1,0,11.3-1.3,16-1.3c2.2,0,4.1,0.3,5.3,1.1c0.9,0.6,1.9,0.8,3.2,0.8c6,0,16-5.6,23.9-5.6
			c1.9,0,3.7,0.3,5.3,1.1c1.2,0.6,2.4,0.9,3.6,0.9c7.9,0,15.6-12.6,35.4-14.8c12.7-6.8,9-15.2,28.1-23.3c6-1.3,12.6-9.6,4.8-19.8
			c-6.2-2.6-3.1-12.3-13.8-16.9c-0.5,0.1-1,0.2-1.5,0.2c-6.3,0-13.5-7.8-18.4-7.8c-0.5,0-1,0.1-1.5,0.3c-1.6,0.7-3.7,1-6,1
			c-5,0-11.6-1.3-19.2-2.7C650.2,657.7,649,657.2,647.5,657.2L647.5,657.2z"/>
	</g>
	<path class="st2" d="M562.1,735c0,0-0.8,5.8-5.3,7.1c-4.6,1.3-7.4,9.8-7.4,9.8"/>
	<path class="st2" d="M580.8,745.2c0,0-0.2,9.7-5.5,10.5c-5.3,0.7-3.9,7.4-3.9,7.4"/>
	<path class="st2" d="M550.4,712.5c0,0-15.2,3.1-18.3-2.2s-7.1-0.9-7.1-0.9"/>
	<path class="st2" d="M559.2,689.4c0,0-8.9,0-8.1-2.9c0.8-2.9-6.5-2.3-6.5-2.3"/>
	<path class="st2" d="M585.5,675.8c0,0-4.3-3.8-2.2-3.7c2.1,0.1-2.2-3.7-2.2-3.7"/>
	<path class="st2" d="M609,746.3c0,0-1.5,6,0.2,7.6s0.2,7.9,0.2,7.9"/>
	<path class="st2" d="M642.4,742.9c0,0-0.4,5,2.7,6.3c3.1,1.3,2,4.5,2,4.5"/>
	<path class="st2" d="M677.1,728.2c0,0,5.4-1.2,7.4,3.9c2.1,5.1,7.4,3.9,7.4,3.9"/>
	<path class="st2" d="M706.6,704.3c0,0,4.2,6.7,8.5,4.9c4.3-1.8,6.4,3.7,6.4,3.7"/>
	<path class="st2" d="M711,685.5c0,0,5.6-0.2,6-2.8c0.4-2.6,6-2.8,6-2.8"/>
	<path class="st2" d="M698.2,669.5c0,0,4.3-1.9,3.7-4.7c-0.6-2.8,3.7-4.7,3.7-4.7"/>
	<path class="st2" d="M648.3,657.3c0,0-3.5-3.2-1.6-4s-1.6-4-1.6-4"/>
	<path class="st2" d="M622.9,662.9c0,0-2.9-3.5-0.2-4.5c2.7-1-0.3-6.3-0.3-6.3"/>
	<path class="st3" d="M562.7,697.5c0.4-1.9,0.9-3.9,1.8-5.6c0.9-1.7,2.5-3.2,4.4-3.5"/>
	<path class="st3" d="M581.4,683.9c1.2-0.4,2.3-0.8,3.5-1.2"/>
	<path class="st3" d="M596.5,677.3c2.1-1.1,4.3-2,6.6-2.6"/>
	<path class="st3" d="M615.4,669.4c4.8-1.2,9.7-2.4,14.5-3.6"/>
	<path class="st3" d="M641.3,665.1c1.9-1,4.2,0,6.3,0.4c1.6,0.3,3.2,0.2,4.7-0.1c0.7-0.2,1.4-0.4,2.1-0.3c1.6,0.2,3.2,2,4.6,1.1"/>
	<path class="st3" d="M669.9,664.6c4.1,0.4,8.1,3.7,12.1,2.6c0.8-0.2,1.7-0.7,2.5-0.4c0.5,0.2,0.9,0.6,1.3,1
		c1.8,1.8,3.8,3.3,5.9,4.5"/>
	<path class="st3" d="M698.6,677.8c1.3,1.4,2.5,2.7,3.8,4.1"/>
	<path class="st3" d="M555.9,718.4c-0.8-3,0.3-6.3,2.5-8.2"/>
	<path class="st4" d="M563.3,696.6c-0.2,1.4,0.9,2.7,2,3.5c1.2,0.8,2.5,1.3,3.5,2.3"/>
	<path class="st4" d="M596.5,681.9c1.9,2.2,1.7,5.5,3,8.1c1,2,2.8,3.5,4.3,5.2s2.9,3.8,2.6,6"/>
	<path class="st4" d="M631.5,671.7c0.7,1.4,1.3,2.8,2,4.2c1,2,1.9,4.1,2.1,6.4c0.1,1.6-0.2,3.3-0.2,4.9c-0.1,1.6,0.2,3.4,1.2,4.7"/>
	<path class="st4" d="M662.7,672.1c2.1,2.8,3.2,6.4,3.7,9.9c0.5,3.5,0.3,7.1,0.2,10.7"/>
	<path class="st3" d="M682.9,682.8c1.2,1.4,0.7,3.5,0.2,5.3c-0.5,1.7-0.9,3.9,0.4,5.2"/>
	<path class="st3" d="M558.2,709.7c1.8,0,3.2,1.8,4.1,3.5c0.9,1.7,1.8,3.5,3.5,4.3c1.1,0.5,2.3,0.3,3.5,0.4c1.2,0.1,2.5,0.5,3,1.6"
		/>
</g>
<g>
	<g>
		<path class="st5" d="M707.8,536c-4.7-1.8-9.5-2.7-14.5-2.7c-4.4,0-8.2,0.7-11.6,1.2c-2.6,0.4-4.9,0.8-6.8,0.8c0,0,0,0,0,0
			c-3.1,0-5-1-6.4-3.2c-3.2-5.1-10.7-6.1-17.3-7c-5.4-0.7-10.6-1.4-12-4.3c-1.4-3-6.1-4.8-11-6.7c-6.6-2.5-13.5-5.2-12.8-10.8
			c0.7-5.9-2.8-8.5-5.9-10.8c-2.4-1.8-4.7-3.4-5.1-6.4c-0.4-2.9-0.8-4.9-1.2-6.5c-0.8-4-1.1-5.3,0-10.6c2.1-10.1,5.8-11.4,9-12.5
			c2.4-0.8,4.6-1.6,5.5-5.7c4.8-7.6,9.6-10.2,19.1-10.2c3.5,0,7.7,0.4,13.5,1.1c0.2,0,0.4,0,0.5,0c1.6,0,3,0.6,4.5,1.2
			c1.6,0.7,3.3,1.4,5.3,1.4c2.1,0,4.2-0.8,6.5-2.5c1.8-0.5,3.5-0.8,5-0.8c4.2,0,7,1.8,9.4,3.4c1.9,1.2,3.6,2.4,5.7,2.4
			c1.1,0,2.1-0.3,3.2-1c4.8,3.2,10.8,3.9,15.7,4.5c6.2,0.7,9.7,1.3,9.8,4.6l0,0.2l1.7,1.5c7.9,6.7,14.2,12,19.4,12.2
			c2.3,0.1,4.2,3.6,6.2,7.4c2.3,4.3,4.6,8.7,8.3,9.7c3.8,5.2,3.2,10,2.7,14.2c-0.4,3.2-0.7,6.2,1,8.7c0.9,7-1.2,11.1-3.1,13.3
			c-2,2.3-5,3.8-7.8,3.8c-0.6,0-1.3-0.1-1.8-0.2l-0.1,0l-0.1,0c-0.7,0-1.5,0-2.2,0c-10,0-14.9,2.9-19.5,5.6
			C717.1,533.6,713.6,535.6,707.8,536z"/>
		<path d="M636.9,441.2c3.4,0,7.7,0.4,13.4,1.1l0.1,0l0.1,0c0.1,0,0.2,0,0.4,0c1.5,0,2.8,0.6,4.3,1.2c1.7,0.7,3.4,1.4,5.5,1.4
			c2.2,0,4.4-0.8,6.7-2.6c1.7-0.5,3.3-0.7,4.8-0.7c4,0,6.7,1.8,9.1,3.4c1.9,1.3,3.8,2.5,6,2.5c1.1,0,2.1-0.3,3.2-0.9
			c4.8,3.1,10.8,3.8,15.7,4.4c5.9,0.7,9.3,1.2,9.4,4.1l0,0.4l0.3,0.3l1.5,1.3c8,6.8,14.3,12.1,19.7,12.3c2,0.1,3.9,3.6,5.7,7.1
			c2.2,4.1,4.6,8.7,8.4,9.9c3.5,5,3,9.6,2.5,13.7c-0.4,3.3-0.8,6.3,1,9c0.9,6.7-1.2,10.7-3,12.8c-2,2.2-4.7,3.6-7.4,3.6
			c-0.6,0-1.2-0.1-1.7-0.2l-0.1,0l-0.1,0c-0.7,0-1.5,0-2.2,0c-10.2,0-15.3,3-19.8,5.7c-3.6,2.1-7,4.2-12.7,4.6
			c-4.7-1.8-9.5-2.7-14.6-2.7c-4.4,0-8.3,0.7-11.7,1.2c-2.6,0.4-4.8,0.8-6.7,0.8c-2.9,0-4.7-0.9-6-3c-3.3-5.3-10.9-6.3-17.6-7.2
			c-5.3-0.7-10.3-1.4-11.6-4c-1.5-3.2-6.3-5-11.3-7c-6.4-2.5-13.1-5-12.4-10.2c0.8-6.2-2.9-8.9-6.1-11.2c-2.3-1.7-4.5-3.3-4.9-6.1
			c-0.4-2.9-0.8-4.9-1.2-6.5c-0.8-3.9-1.1-5.2,0-10.4c2.1-9.9,5.6-11.1,8.7-12.2c2.4-0.8,4.8-1.7,5.8-5.9
			C622.9,443.7,627.7,441.2,636.9,441.2 M636.9,440.2c-10,0-14.8,2.9-19.6,10.5c-1.9,9.2-10.8,0.4-14.6,18.3
			c-1.6,7.5-0.4,7.4,1.1,17.2c1.1,7.3,12.3,7.1,11,17c-1.3,10.3,20.6,11,23.8,17.8c3.2,6.8,23.5,2.1,29.2,11.3
			c1.7,2.6,3.9,3.5,6.8,3.5c4.6,0,10.7-2.1,18.4-2.1c4.3,0,9.1,0.7,14.4,2.7c13.4-0.8,14.7-10.3,32.7-10.3c0.7,0,1.4,0,2.1,0
			c0.6,0.2,1.3,0.2,2,0.2c5.7,0,13.1-5.5,11.4-17.8c-4-5.5,3.1-13.6-3.9-23.2c-6.9-1.7-9.3-17-14.7-17.2
			c-5.4-0.2-12.1-6.1-20.6-13.4c-0.3-7.4-16-2.6-26-9.7c-1.2,0.7-2.3,1-3.3,1c-4.4,0-7.5-5.8-15.1-5.8c-1.5,0-3.3,0.2-5.2,0.8
			c-2.5,1.8-4.5,2.5-6.3,2.5c-3.7,0-6.4-2.6-9.8-2.6c-0.1,0-0.3,0-0.4,0C645.1,440.6,640.7,440.2,636.9,440.2L636.9,440.2z"/>
	</g>
	<path class="st2" d="M605.6,489.9c0,0-3.3,5.4-7.9,4.6c-4.5-0.8-10.9,6.4-10.9,6.4"/>
	<path class="st2" d="M616.7,508.6c0,0-4.7,9.6-9.6,7.9s-6.8,5.5-6.8,5.5"/>
	<path class="st2" d="M606.2,462c0,0-14.4-3.9-14.5-10.7c-0.2-6.8-5.6-4.1-5.6-4.1"/>
	<path class="st2" d="M624.4,443.1c0,0-7.5-4.1-5.5-6.6c2-2.5-4.4-5.3-4.4-5.3"/>
	<path class="st2" d="M653.1,441.7c0,0-1.9-5.7-0.1-4.7s-0.1-4.7-0.1-4.7"/>
	<path class="st2" d="M640.2,522.8c0,0-4,5.2-3.3,7.6c0.7,2.4-3.5,7.9-3.5,7.9"/>
	<path class="st2" d="M670.2,534.7c0,0-2.7,4.8-0.6,7.5c2.1,2.7-0.4,5.4-0.4,5.4"/>
	<path class="st2" d="M706.5,536.1c0,0,5.1,1.3,4.5,7.3c-0.6,6,4.5,7.4,4.5,7.4"/>
	<path class="st2" d="M742.8,525.9c0,0,0.4,8.6,4.9,8.8c4.5,0.2,3.7,6.7,3.7,6.7"/>
	<path class="st2" d="M755.3,509.2c0,0,4.8,2.4,6.4,0c1.5-2.4,6.4,0,6.4,0"/>
	<path class="st2" d="M751.9,487.3c0,0,4.5,0.1,5.3-3c0.8-3.1,5.3-3,5.3-3"/>
	<path class="st2" d="M715.1,452.2c0,0-1.5-4.8,0.6-4.7s0.6-4.7,0.6-4.7"/>
	<path class="st2" d="M690.9,446.1c0,0-0.8-4.9,1.9-4.6c2.8,0.3,2.7-6.4,2.7-6.4"/>
	<path class="st3" d="M623.7,452.8c1.3-1.7,2.6-3.5,4.2-4.8c1.6-1.3,3.6-2,5.3-1.4"/>
	<path class="st3" d="M645.8,447.9c1.2,0.1,2.3,0.3,3.5,0.4"/>
	<path class="st3" d="M661.7,448.3c2.3-0.1,4.6,0.1,6.9,0.4"/>
	<path class="st3" d="M681.5,449.1c4.7,1,9.4,2,14,3.1"/>
	<path class="st3" d="M705.5,456.7c2.1-0.1,3.5,1.9,5.1,3.3c1.2,1,2.6,1.7,4.1,2c0.7,0.2,1.4,0.2,1.9,0.7c1.3,0.9,1.8,3.5,3.4,3.2"
		/>
	<path class="st3" d="M730.1,469.5c3.3,2.3,5.1,7.5,9.1,8.2c0.8,0.1,1.7,0.1,2.3,0.8c0.3,0.4,0.5,1,0.6,1.6c0.7,2.6,1.7,5,2.9,7.2"
		/>
	<path class="st3" d="M748.3,495.8c0.4,1.9,0.9,3.9,1.3,5.8"/>
	<path class="st3" d="M608.1,470.4c0.7-3.3,3.2-6.2,6-7"/>
	<path class="st4" d="M624.5,452.2c-0.8,1.3-0.5,3.1,0.1,4.4c0.6,1.3,1.5,2.4,1.9,3.9"/>
	<path class="st4" d="M659.6,452.9c0.6,3-1.1,6.2-1.2,9.4c-0.1,2.5,0.7,4.8,1.3,7.1c0.5,2.3,0.7,5.1-0.6,7.2"/>
	<path class="st4" d="M694.1,458.8c-0.1,1.7-0.2,3.4-0.3,5.1c-0.1,2.5-0.3,5-1.2,7.3c-0.7,1.7-1.7,3.2-2.5,4.8
		c-0.8,1.6-1.5,3.4-1.2,5.2"/>
	<path class="st4" d="M720.4,473.6c0.5,3.8-0.2,7.8-1.5,11.6c-1.3,3.7-3.1,7.2-4.8,10.7"/>
	<path class="st3" d="M732.7,493.6c0.4,1.9-1,3.8-2.3,5.3c-1.2,1.5-2.6,3.5-2.1,5.4"/>
	<path class="st3" d="M614.1,462.9c1.5,0.9,1.8,3.2,1.8,5.3c0,2.1-0.1,4.4,1,5.9c0.7,1,1.8,1.4,2.8,2c1,0.6,1.9,1.6,1.9,3"/>
</g>
<g>
	<g>
		<path class="st5" d="M447.2,652.4c-2.4,0-4-0.8-5.4-2.7c-3.4-4.9-10.7-5.3-17.1-5.6c-5.3-0.3-10.3-0.5-11.8-3.3
			c-1.6-2.9-6.2-4.3-11.1-5.8c-6.5-2-13.3-4.1-13-9.7c0.3-5.9-3.2-8.2-6.4-10.2c-2.4-1.6-4.7-3-5.3-5.9c-0.6-2.8-1.1-4.8-1.5-6.4
			c-1-3.8-1.4-5.2-0.7-10.5c1.4-10.3,4.9-11.8,7.9-13.2c2.2-1,4.3-2,4.9-6.1c4.7-9.2,9.9-11.9,23.1-11.9c2.2,0,4.7,0.1,7.7,0.2
			l0.1,0l0.1,0c0.3,0,0.6-0.1,0.9-0.1c1.3,0,2.6,0.4,3.9,0.9c1.4,0.5,2.9,1,4.5,1c2.3,0,4.5-1,6.8-3.1c2.1-0.8,4-1.2,5.8-1.2
			c3.5,0,6,1.4,8.2,2.7c1.8,1,3.4,2,5.2,2c1.2,0,2.3-0.4,3.5-1.2c4.8,2.8,10.7,3,15.4,3.2c6,0.2,9.4,0.5,9.7,3.8l0,0.2l1.7,1.3
			c7.9,5.9,14.1,10.6,19.1,10.6c0.1,0,0.3,0,0.4,0l0.1,0c2.2,0,4.2,3.3,6.3,6.8c2.4,4.1,5,8.3,8.6,9c3.9,4.9,3.7,9.7,3.5,13.9
			c-0.2,3.2-0.3,6.2,1.5,8.6c1.1,5.7,0.2,10.7-2.6,14.1c-2,2.4-4.7,3.8-7.4,3.8c-0.4,0-0.8,0-1.2-0.1l-0.1,0l-0.1,0
			c-11.1,0.5-15.9,3.9-20.5,7.3c-3.4,2.5-6.6,4.8-12.2,5.6c-3.7-1.1-7.2-1.7-11-1.7c-5.5,0-10.2,1.2-14.2,2.3
			C451.8,651.7,449.3,652.4,447.2,652.4C447.2,652.4,447.2,652.4,447.2,652.4z"/>
		<path d="M440.7,559.2c3.3,0,5.8,1.4,7.9,2.6c1.8,1,3.5,2,5.5,2c1.2,0,2.3-0.4,3.5-1.1c4.9,2.7,10.7,2.9,15.4,3.1
			c5.7,0.2,9,0.5,9.3,3.3l0,0.4l0.4,0.3l1.6,1.2c7.9,6,14.2,10.7,19.4,10.7c0.1,0,0.3,0,0.4,0l0.1,0c1.9,0,3.9,3.3,5.8,6.6
			c2.5,4.1,5,8.3,8.7,9.2c3.7,4.7,3.5,9.3,3.3,13.5c-0.2,3.3-0.3,6.4,1.6,8.8c1.3,7-0.6,11.2-2.5,13.5c-1.9,2.3-4.5,3.6-7,3.6
			c-0.4,0-0.7,0-1.1-0.1l-0.1,0l-0.1,0c-11.3,0.5-16.3,4.1-20.8,7.4c-3.3,2.4-6.5,4.7-11.9,5.5c-3.7-1.1-7.3-1.7-11-1.7
			c-5.6,0-10.5,1.3-14.4,2.3c-2.9,0.7-5.3,1.4-7.4,1.4c-2.2,0-3.7-0.8-5-2.5c-3.6-5.1-11-5.5-17.5-5.8c-5.1-0.3-10-0.5-11.3-3.1
			c-1.7-3.1-6.4-4.5-11.4-6.1c-6.3-1.9-12.9-4-12.6-9.2c0.4-6.2-3.3-8.6-6.6-10.7c-2.4-1.6-4.5-2.9-5.1-5.6
			c-0.6-2.8-1.1-4.8-1.5-6.4c-1-3.8-1.4-5.1-0.6-10.4c1.4-10,4.7-11.5,7.6-12.8c2.2-1,4.6-2.1,5.2-6.4c4.6-9,9.7-11.6,22.6-11.6
			c2.2,0,4.7,0.1,7.6,0.2l0.1,0l0.1,0c0.3,0,0.5-0.1,0.8-0.1c1.2,0,2.4,0.4,3.7,0.8c1.5,0.5,3,1,4.7,1c2.4,0,4.7-1,7-3.1
			C437.1,559.6,438.9,559.2,440.7,559.2 M440.7,558.2c-1.8,0-3.8,0.4-6.1,1.3c-2.5,2.3-4.6,3-6.5,3c-3.1,0-5.6-1.9-8.4-1.9
			c-0.3,0-0.6,0-0.9,0.1c-2.8-0.2-5.4-0.2-7.7-0.2c-13.5,0-18.8,2.9-23.6,12.2c-1.3,9.3-10.4,1.3-12.8,19.4c-1,7.6,0.1,7.4,2.2,17.1
			c1.5,7.1,12.3,6.1,11.7,16.1c-0.6,10.3,20.6,9.3,24.1,15.8c3.5,6.5,22.7,0.2,28.9,9c1.5,2.2,3.5,2.9,5.8,2.9
			c5.1,0,12.2-3.7,21.7-3.7c3.3,0,7,0.5,10.9,1.7c13.4-2,13.5-12.1,32.8-12.9c0.4,0.1,0.8,0.1,1.3,0.1c5.5,0,13-6.1,10.5-18.6
			c-4.2-5.1,2.1-13.8-5.2-22.8c-6.7-1.2-10-15.9-15.1-15.9c0,0-0.1,0-0.1,0c-0.1,0-0.2,0-0.4,0c-5.2,0-11.9-5.3-20.4-11.7
			c-0.7-7.3-15.6-1.4-25.7-7.6c-1.3,0.9-2.4,1.3-3.5,1.3C450.3,562.9,447,558.2,440.7,558.2L440.7,558.2z"/>
	</g>
	<path class="st2" d="M378.6,612.6c0,0-2.9,5.6-7.3,5.2s-10.1,7.2-10.1,7.2"/>
	<path class="st2" d="M390.5,630.3c0,0-3.9,9.9-8.7,8.6c-4.8-1.3-6.1,6.1-6.1,6.1"/>
	<path class="st2" d="M377.3,584.8c0,0-14.1-2.7-14.7-9.5c-0.6-6.7-5.6-3.6-5.6-3.6"/>
	<path class="st2" d="M393.7,564.5c0,0-7.5-3.5-5.8-6.1c1.8-2.7-4.6-4.9-4.6-4.9"/>
	<path class="st2" d="M421.2,560.8c0,0-2.2-5.6-0.4-4.6s-0.4-4.6-0.4-4.6"/>
	<path class="st2" d="M414,642.5c0,0-3.5,5.5-2.7,7.9c0.8,2.3-2.8,8.2-2.8,8.2"/>
	<path class="st2" d="M443.6,652c0,0-2.3,5-0.1,7.6c2.2,2.6-0.1,5.4-0.1,5.4"/>
	<path class="st2" d="M478.7,650.6c0,0,5,0.9,4.8,7c-0.2,6,4.8,7,4.8,7"/>
	<path class="st2" d="M512.9,637.5c0,0,1,8.5,5.3,8.4s4,6.3,4,6.3"/>
	<path class="st2" d="M523.9,619.9c0,0,4.8,2,6.1-0.5c1.3-2.5,6.1-0.5,6.1-0.5"/>
	<path class="st2" d="M519.2,598.4c0,0,4.4-0.3,4.9-3.4s4.9-3.4,4.9-3.4"/>
	<path class="st2" d="M481.6,566.4c0,0-1.7-4.7,0.2-4.8s0.2-4.8,0.2-4.8"/>
	<path class="st2" d="M457.9,562.2c0,0-1.1-4.8,1.6-4.7s2.2-6.6,2.2-6.6"/>
	<path class="st3" d="M393.6,574.2c1.1-1.8,2.3-3.7,3.7-5.1c1.5-1.4,3.3-2.3,5-1.8"/>
	<path class="st3" d="M414.6,567.6c1.1,0,2.3,0.1,3.4,0.1"/>
	<path class="st3" d="M429.9,566.7c2.2-0.3,4.4-0.3,6.6-0.1"/>
	<path class="st3" d="M449,566c4.6,0.6,9.1,1.3,13.7,1.9"/>
	<path class="st3" d="M472.6,571.6c2-0.3,3.5,1.6,5.2,2.8c1.2,0.9,2.6,1.5,4,1.7c0.6,0.1,1.3,0.1,1.9,0.5c1.3,0.8,2,3.3,3.5,2.9"/>
	<path class="st3" d="M497.1,582.4c3.3,2.1,5.4,7,9.3,7.4c0.8,0.1,1.7,0,2.3,0.6c0.4,0.4,0.5,1,0.7,1.5c0.8,2.5,1.9,4.9,3.3,7"/>
	<path class="st3" d="M516.3,607.2c0.5,1.9,1.1,3.8,1.6,5.7"/>
	<path class="st3" d="M379.7,593c0.5-3.4,2.7-6.4,5.3-7.4"/>
	<path class="st4" d="M394.3,573.6c-0.7,1.4-0.3,3.1,0.4,4.4c0.7,1.2,1.6,2.3,2.1,3.7"/>
	<path class="st4" d="M428.2,571.4c0.7,3-0.7,6.3-0.6,9.5c0.1,2.5,1,4.7,1.7,7c0.7,2.3,1,5-0.1,7.2"/>
	<path class="st4" d="M461.8,574.6c0,1.7,0,3.4,0.1,5.1c0,2.5,0,5-0.7,7.4c-0.5,1.7-1.4,3.3-2.1,4.9s-1.2,3.5-0.8,5.3"/>
	<path class="st4" d="M488.1,587.2c0.7,3.7,0.3,7.8-0.7,11.6c-1,3.8-2.5,7.4-4,11"/>
	<path class="st3" d="M501.1,606.2c0.5,1.9-0.7,3.9-1.8,5.5c-1.1,1.6-2.3,3.7-1.7,5.5"/>
	<path class="st3" d="M385,585c1.5,0.8,2,3.1,2.1,5.1c0.1,2.1,0.2,4.4,1.3,5.8c0.7,0.9,1.8,1.3,2.8,1.8s1.9,1.5,2,2.8"/>
</g>
<g>
	<g>
		<path class="st5" d="M183.2,562.7c-1.7,0-3.1-0.5-4.4-1.6c-2.2-1.9-5.3-2.7-9.8-2.7c-2.7,0-5.6,0.3-8.3,0.6
			c-2.5,0.3-4.9,0.5-6.9,0.5c0,0,0,0,0,0c-2.8,0-4.5-0.5-5.5-1.5c-2.1-2.2-7-2.7-12.2-3.2c-6.9-0.7-14.1-1.4-14.8-6.2
			c-0.8-5.2-4.8-6.6-8.3-7.8c-2.7-1-5.3-1.9-6.4-4.2c-1.1-2.3-2-3.9-2.7-5.2c-1.7-3.2-2.3-4.2-2.6-8.9c-0.5-8.9,2.7-10.8,5.5-12.5
			c2.1-1.2,4-2.4,3.9-6c3.5-9.7,9.2-12.6,28.8-14.8c0.7-0.2,1.5-0.3,2.3-0.3c0.9,0,1.8,0.1,2.8,0.2c1,0.1,2,0.3,3.1,0.3
			c3.1,0,5.5-1.2,7.9-3.8c2.7-1.4,5.3-2.1,7.9-2.1c2.5,0,4.6,0.6,6.5,1.2c1.6,0.5,3.1,0.9,4.6,0.9c0,0,0,0,0,0c1.6,0,3-0.5,4.3-1.7
			c2.2,0.7,4.7,1,7.6,1c3,0,5.9-0.4,8.5-0.7c2.1-0.3,4.2-0.5,5.8-0.5c2.7,0,4.1,0.7,4.7,2.2l0.1,0.2l2,0.9
			c8.1,3.5,14.5,6.2,19.4,6.2c0.7,0,1.4-0.1,2.1-0.2c0.2,0,0.4-0.1,0.5-0.1c2.1,0,4.6,2.4,7.2,4.9c3.1,3,6.5,6.3,10.3,6.4
			c4.9,3.6,5.5,7.7,6,11.3c0.4,2.8,0.8,5.4,3.1,7.2c2.7,5.9,1.5,9.9,0,12.2c-2,3.2-5.5,4.6-8,4.6h0l-0.1,0
			c-11.1,2.1-15.2,5.9-19.3,9.4c-3,2.6-5.8,5.1-11.3,6.8c-1.6-0.2-3.1-0.2-4.6-0.2c-8.8,0-15.3,2.6-20.6,4.7
			C188.7,561.5,185.7,562.7,183.2,562.7z"/>
		<path d="M163.2,483.9c2.4,0,4.4,0.6,6.4,1.2c1.6,0.5,3.2,1,4.7,1c1.6,0,3.1-0.5,4.4-1.6c2.2,0.7,4.6,1,7.4,1c3,0,6-0.4,8.6-0.7
			c2.1-0.3,4.1-0.5,5.8-0.5c3.1,0,3.9,0.9,4.2,1.9l0.1,0.4l0.4,0.2l1.8,0.8c8.2,3.5,14.6,6.2,19.6,6.2c0.8,0,1.5-0.1,2.2-0.2
			c0.1,0,0.3,0,0.4,0c1.9,0,4.3,2.3,6.8,4.8c3.1,3,6.5,6.3,10.4,6.5c4.6,3.4,5.2,7.4,5.7,10.9c0.4,2.9,0.9,5.6,3.2,7.4
			c2.5,5.6,1.4,9.4,0,11.7c-1.9,3-5.2,4.4-7.6,4.4h-0.1l-0.1,0c-11.2,2.2-15.6,6.1-19.5,9.6c-2.9,2.6-5.7,5-11,6.6
			c-1.5-0.2-3.1-0.2-4.6-0.2c-8.9,0-15.5,2.6-20.8,4.7c-3.3,1.3-6.2,2.5-8.6,2.5c-1.6,0-2.9-0.5-4.1-1.5c-2.3-1.9-5.5-2.8-10.2-2.8
			c-2.7,0-5.6,0.3-8.4,0.6c-2.5,0.3-4.8,0.5-6.9,0.5c-2.6,0-4.3-0.4-5.2-1.4c-2.2-2.4-7.2-2.9-12.5-3.4c-6.7-0.7-13.7-1.4-14.4-5.8
			c-0.8-5.5-5-6.9-8.6-8.2c-2.6-0.9-5.1-1.8-6.2-4c-1.1-2.3-2-3.9-2.7-5.2c-1.7-3.1-2.3-4.1-2.5-8.7c-0.5-8.6,2.6-10.4,5.2-12
			c2.1-1.2,4.2-2.5,4.1-6.4c3.4-9.5,8.8-12.2,28.4-14.3l0.1,0l0.1,0c0.6-0.2,1.3-0.3,2-0.3c0.9,0,1.8,0.1,2.7,0.2
			c1,0.1,2,0.3,3.1,0.3c3.2,0,5.7-1.2,8.2-3.9C158.3,484.5,160.7,483.9,163.2,483.9 M163.2,482.9c-2.4,0-5.1,0.6-8.2,2.2
			c-2.7,3-5.2,3.7-7.6,3.7c-2,0-3.9-0.5-5.8-0.5c-0.8,0-1.5,0.1-2.3,0.3c-19.6,2.1-25.6,4.9-29.3,15.2c0.4,8.2-10.2,2.7-9.3,18.6
			c0.4,6.7,1.5,6.3,5.4,14.3c2.8,5.9,13.4,3.3,14.7,11.9c1.3,8.9,22.4,4.7,27.1,9.7c1.2,1.3,3.3,1.7,5.9,1.7
			c4.4,0,10.1-1.1,15.2-1.1c3.7,0,7.1,0.6,9.5,2.6c1.5,1.3,3.1,1.7,4.8,1.7c6.5,0,14.9-7.2,29.4-7.2c1.5,0,3.1,0.1,4.7,0.2
			c13.1-3.8,11.3-12.5,30.6-16.2c0,0,0,0,0,0c5.8,0,13.6-6.5,8.4-17.7c-5.2-3.7-0.4-12.1-9.4-18.7c0,0,0,0,0,0
			c-6.7,0-12.5-11.3-17.6-11.3c-0.2,0-0.4,0-0.6,0.1c-0.6,0.1-1.3,0.2-2,0.2c-5.1,0-12.2-3.2-21-6.9c-0.7-2-2.5-2.6-5.1-2.6
			c-3.7,0-9,1.2-14.4,1.2c-2.6,0-5.2-0.3-7.7-1.1c-1.4,1.3-2.8,1.7-4.2,1.7C171.2,485,167.9,482.9,163.2,482.9L163.2,482.9z"/>
	</g>
	<path class="st2" d="M108.5,539.3c0,0-1.8,5.3-6.3,5.6c-4.5,0.3-8.8,7.8-8.8,7.8"/>
	<path class="st2" d="M123.7,552.6c0,0-2.1,9.1-7.2,8.7c-5.1-0.4-5.1,6.1-5.1,6.1"/>
	<path class="st2" d="M102.1,515.7c0,0-14.6-0.2-16.5-5.8c-1.8-5.7-6.3-2.2-6.3-2.2"/>
	<path class="st2" d="M114.8,495.8c0,0-8.2-1.8-6.9-4.4s-5.5-3.5-5.5-3.5"/>
	<path class="st2" d="M141.8,488.3c0,0-3.2-4.4-1.3-3.9c2,0.5-1.3-3.9-1.3-3.9"/>
	<path class="st2" d="M149.6,559.4c0,0-2.5,5.3-1.3,7.2c1.2,1.9-1.3,7.4-1.3,7.4"/>
	<path class="st2" d="M181.1,562.9c0,0-1.4,4.6,1.3,6.5c2.6,1.9,0.9,4.6,0.9,4.6"/>
	<path class="st2" d="M216.1,556.1c0,0,5.2,0,6.1,5.2c0.9,5.2,6.1,5.2,6.1,5.2"/>
	<path class="st2" d="M248.1,539.6c0,0,2.6,7.1,6.9,6.4c4.3-0.8,5.2,4.8,5.2,4.8"/>
	<path class="st2" d="M255.9,522.8c0,0,5.2,0.9,6.1-1.4c0.9-2.3,6.1-1.4,6.1-1.4"/>
	<path class="st2" d="M247.2,505.1c0,0,4.3-0.9,4.3-3.7c0-2.8,4.3-3.7,4.3-3.7"/>
	<path class="st2" d="M203.5,483.6c0,0-2.6-3.7-0.6-4.1c2-0.4-0.6-4.1-0.6-4.1"/>
	<path class="st2" d="M178.9,483.7c0,0-2-3.9,0.7-4.3c2.7-0.4,1-6,1-6"/>
	<path class="st3" d="M116.5,504.1c0.8-1.7,1.6-3.5,2.8-4.9c1.2-1.4,2.9-2.5,4.7-2.4"/>
	<path class="st3" d="M136.4,495.1c1.1-0.1,2.3-0.3,3.4-0.4"/>
	<path class="st3" d="M151.7,492c2.2-0.6,4.4-1,6.6-1.1"/>
	<path class="st3" d="M170.7,488.4c4.7-0.2,9.4-0.3,14.1-0.5"/>
	<path class="st3" d="M195.5,489.5c1.9-0.5,3.8,0.8,5.7,1.6c1.4,0.6,2.9,0.9,4.4,0.8c0.7,0,1.4-0.1,2,0.1c1.5,0.5,2.6,2.5,4,2"/>
	<path class="st3" d="M222.1,494.9c3.7,1.2,6.8,5.2,10.7,4.9c0.8-0.1,1.7-0.3,2.4,0.2c0.4,0.3,0.7,0.7,1,1.2c1.3,2,2.8,3.9,4.6,5.5"
		/>
	<path class="st3" d="M245.9,513.1c0.9,1.5,1.8,3.1,2.7,4.6"/>
	<path class="st3" d="M106,522.4c-0.1-2.9,1.5-5.9,4-7.2"/>
	<path class="st4" d="M117.2,503.4c-0.5,1.3,0.3,2.7,1.2,3.7s2.1,1.7,2.8,2.8"/>
	<path class="st4" d="M150.8,496.3c1.3,2.4,0.5,5.5,1.2,8.2c0.5,2.1,1.9,3.9,3,5.7s1.9,4.1,1.2,6.2"/>
	<path class="st4" d="M185.2,493.7c0.3,1.4,0.7,2.9,1,4.3c0.5,2.1,1,4.3,0.7,6.4c-0.2,1.6-0.8,3-1.2,4.6s-0.5,3.2,0.1,4.6"/>
	<path class="st4" d="M213.9,500.4c1.4,3.1,1.7,6.6,1.5,10.1c-0.3,3.4-1.1,6.8-2,10.1"/>
	<path class="st3" d="M230.5,514.6c0.8,1.5,0,3.4-0.8,5c-0.8,1.5-1.6,3.5-0.7,5"/>
	<path class="st3" d="M109.9,514.7c1.7,0.4,2.6,2.3,3.1,4.1s1,3.7,2.4,4.7c0.9,0.7,2.1,0.8,3.1,1.1c1.1,0.3,2.2,1,2.5,2.1"/>
</g>
</svg>
