<?xml version="1.0" encoding="utf-8"?>
<!-- Generator: Adobe Illustrator 21.0.0, SVG Export Plug-In . SVG Version: 6.00 Build 0)  -->
<svg version="1.1" id="Capa_1" xmlns="http://www.w3.org/2000/svg" xmlns:xlink="http://www.w3.org/1999/xlink" x="0px" y="0px"
	 viewBox="0 0 600 600" style="enable-background:new 0 0 600 600;" xml:space="preserve">
<style type="text/css">
	.st0{fill:#AFAEAE;stroke:#3D3C3C;stroke-miterlimit:10;}
	.st1{fill:#46B774;stroke:#3D3C3C;stroke-miterlimit:10;}
	.st2{fill:#097033;stroke:#3D3C3C;stroke-miterlimit:10;}
	.st3{fill:none;stroke:#070606;stroke-width:2;stroke-miterlimit:10;}
	.st4{fill:#F71414;}
	.st5{fill:#1F2120;stroke:#3D3C3C;stroke-miterlimit:10;}
	.st6{fill:none;stroke:#C60C0C;stroke-width:2;stroke-miterlimit:10;}
	.st7{fill:none;stroke:#3AD400;stroke-width:2;stroke-miterlimit:10;}
	.st8{fill:none;stroke:#AA1800;stroke-width:2;stroke-miterlimit:10;}
	.st9{fill:none;stroke:#26007F;stroke-width:2;stroke-miterlimit:10;}
	.st10{fill:none;stroke:#EDFF2A;stroke-width:2;stroke-miterlimit:10;}
</style>
<g id="Capa_1_1_">
	<rect x="237.5" y="257.5" class="st0" width="125" height="47"/>
	<path class="st0" d="M479,272c0,0-156.8,0-162.6,0s-14.8-10.3-14.8-10.3s-7.4,10.3-14.5,10.3s-159.3,0-159.3,0
		c-5.9,0-87.8,0-87.8-88.9c0-99.3,91.4-88.9,85.1-88.9s47.5,0,108.4,0c22.4,0,51.1,7.2,68.1,7.2s46.5-7.2,69-7.2
		c62.1,0,106.6,0,106.6,0c5.9,0,86-3.1,86,88.9S484.9,272,479,272z"/>
	<rect x="209.5" y="293.5" class="st0" width="181" height="119"/>
	<path class="st0" d="M284.5,476.5h-133c-6.6,0-12-3.5-12-7.7v-87.6c0-4.2,5.4-7.7,12-7.7h133c6.6,0,12,3.5,12,7.7v87.6
		C296.5,473,291.1,476.5,284.5,476.5z"/>
	<path class="st0" d="M452.5,476.5h-133c-6.6,0-12-3.4-12-7.7v-87.5c0-4.2,5.4-7.7,12-7.7h133c6.6,0,12,3.4,12,7.7v87.5
		C464.5,473.1,459.1,476.5,452.5,476.5z"/>
	<rect x="148.5" y="373.5" class="st1" width="139" height="103"/>
	<rect x="316.5" y="373.7" class="st1" width="139" height="102.8"/>
	<rect x="148.5" y="379.5" class="st2" width="139" height="4"/>
	<rect x="148.5" y="387.5" class="st2" width="139" height="4"/>
	<rect x="148.5" y="395.5" class="st2" width="139" height="4"/>
	<rect x="148.5" y="403.5" class="st2" width="139" height="4"/>
	<rect x="148.5" y="411.5" class="st2" width="139" height="4"/>
	<rect x="148.5" y="419.5" class="st2" width="139" height="4"/>
	<rect x="148.5" y="427.5" class="st2" width="139" height="4"/>
	<rect x="148.5" y="435.5" class="st2" width="139" height="4"/>
	<rect x="148.5" y="443.5" class="st2" width="139" height="4"/>
	<rect x="148.5" y="451.5" class="st2" width="139" height="4"/>
	<rect x="148.5" y="459.5" class="st2" width="139" height="4"/>
	<rect x="148.5" y="467.5" class="st2" width="139" height="4"/>
	<rect x="316.5" y="380.5" class="st2" width="139" height="4"/>
	<rect x="316.5" y="387.5" class="st2" width="139" height="4"/>
	<rect x="316.5" y="394.5" class="st2" width="139" height="4"/>
	<rect x="316.5" y="401.5" class="st2" width="139" height="4"/>
	<rect x="316.5" y="408.5" class="st2" width="139" height="4"/>
	<rect x="316.5" y="415.5" class="st2" width="139" height="4"/>
	<rect x="316.5" y="422.5" class="st2" width="139" height="4"/>
	<rect x="316.5" y="429.5" class="st2" width="139" height="4"/>
	<rect x="316.5" y="436.5" class="st2" width="139" height="4"/>
	<rect x="316.5" y="443.5" class="st2" width="139" height="4"/>
	<rect x="316.5" y="450.5" class="st2" width="139" height="4"/>
	<rect x="316.5" y="457.5" class="st2" width="139" height="4"/>
	<rect x="316.5" y="464.5" class="st2" width="139" height="4"/>
	<rect x="316.5" y="471.5" class="st2" width="139" height="4"/>
	<polyline class="st3" points="296.5,101.4 323.5,22.5 357.5,37.5 	"/>
	<circle class="st4" cx="366" cy="45" r="19.8"/>
	<path class="st5" d="M275.5,219H147c-6.6,0-12-5.4-12-12v-42c0-6.6,5.4-12,12-12h128.5c6.6,0,12,5.4,12,12v42
		C287.5,213.6,282.1,219,275.5,219z"/>
	<path class="st6" d="M155.6,187.5c0.8-10.1,11.6-18.1,21.5-15.9c8.1,1.8,13.9,9,21.5,12.6c4.7,2.2,9.9,3,15,3.2
		c6.3,0.2,12.8-0.4,18.2-3.5c5.4-3.1,9.6-9,9.1-15.3"/>
	<path class="st7" d="M143.5,209.5c-0.3-2.3-0.7-4.7-1-7c6.1,0.2,12.2-0.7,18-2.4c0-4.9,0-9.7,0-14.6c0-1.3,0-2.7,0.6-3.8
		c0.7-1.3,2.1-2.1,3.5-2.8c8.3-4.3,16.6-8.6,24.9-12.9c15-7.8,34.9,1.3,51.3,5.7c1.5,0.4,3.1,0.9,3.8,2.3c0.6,1.1,0.5,2.4,0.3,3.6
		c-1.2,9.4-2,19.3,1.8,28s13.6,15.5,22.7,12.6"/>
	<path class="st7" d="M199.4,207.6c2.1-9.4,11.4-15.6,20.7-17.7c9.4-2.1,19.1-0.9,28.7-0.8c3.9,0.1,8-0.1,11.5-1.9
		c3.5-1.8,6.1-5.8,5.2-9.6"/>
	<path class="st7" d="M208.2,174.2c3.9,2.4,6.8,6.3,7.9,10.8c1.1,4.5,0.2,9.3-2.2,13.2c-0.4,0.6-0.8,1.2-0.8,1.9
		c0,0.8,0.5,1.5,1.1,2.2c5.9,7.1,14,12.3,22.9,14.8"/>
	<path class="st8" d="M201.5,174.3c-3.9,0.6-7.8,1.7-11.4,3.4c-1,0.4-1.9,0.9-2.6,1.7c-0.7,0.9-1,2.2-1.1,3.3
		c-0.2,2.2,0.1,4.5,0.7,6.6c0.7,2.4,1.9,4.7,1.4,7.1c-0.6,2.8-3.3,4.7-6,5.8c-3.8,1.6-7.8,2.6-11.9,2.8"/>
	<path class="st8" d="M200.1,201.6c-3-4.6-1.9-11.4,2.4-14.8c3.8-3,9-3.2,13.8-3.2c8.7-0.1,17.5-0.2,25.9-2.3
		c8.4-2.2,16.6-6.7,21.3-14"/>
	<path class="st8" d="M161,159.4c6.7,0.6,13.3,2.4,19.5,5.1c0.6,0.2,1.1,0.5,1.5,1c0.5,0.6,0.7,1.4,0.8,2.1c0.8,4.3,1.5,9-0.2,13
		c-0.9,2.1-2.5,4-3.2,6.2c-0.7,2.2-0.3,5.1,1.8,6.1"/>
	<path class="st8" d="M139.2,181.5c-0.3-4.5,5.1-7.6,9.5-6.7c4.4,0.8,7.9,4.2,11,7.4c3,3,5.9,6,8.9,9c2.5,2.5,5,5,8.1,6.6
		c7.5,3.9,17.4,1.3,23.2-4.9"/>
	<path class="st8" d="M233.4,207.1c0.9-3.9,4.2-7.2,8.2-8.2c4.1-1,8.6,0.4,12.6-1c3-1.1,5.3-3.8,6.6-6.8c1.3-3,1.8-6.2,2.2-9.4
		c0.1-0.7,0.2-1.4-0.1-2c-0.3-0.7-0.9-1.1-1.6-1.5c-3.9-2.6-7.5-5.7-10.8-9c-1.5-1.5-2.9-3.2-3.5-5.2c-0.6-2,0-4.5,1.8-5.6"/>
	<path class="st9" d="M226.9,156.9c3.3,4.7,2.3,11.8-2,15.5c-2.8,2.3-6.4,3.3-10,3.8c-16.4,2.3-34.6-2.4-48.6,6.4
		c-1.9,1.2-3.6,2.6-4.8,4.4c-1.8,2.9-1.9,6.4-1.9,9.8c0,3.5,0.1,7.5,2.6,9.9c3.6,3.4,9.4,1.6,14.4,2.1c3.2,0.3,6.2,1.7,9.1,3.1"/>
	<path class="st9" d="M271.7,166.4c6.3,4.6,7,15.1,1.5,20.5c-2.2,2.2-5.2,3.6-7.3,5.8c-3.6,3.7-4.4,9.8-1.9,14.4
		c0.6,1.2,1.5,2.5,1,3.7c-0.4,1-1.5,1.5-2.6,1.8c-7.8,2.5-16.3,2.7-24.2,0.5c-1.6-0.4-3.2-1-4.5-2c-2.6-1.9-3.7-5.3-3.8-8.5
		c0-3.2,0.9-6.4,1.9-9.4c-3.2-1.2-6.4-2.5-9.7-3.7"/>
	<path class="st9" d="M142.5,160.5c2.3,0.6,4.8-1.2,7-0.2c0.8,0.4,1.4,1.1,1.8,1.8c2.9,4.9,0.9,11.1-1.6,16.1s-5.7,10.3-5,15.9
		c0.6,5.3,4.6,9.6,8.9,12.9"/>
	<path class="st9" d="M169,216.6c-3.7-1.9-3.3-7.8-0.1-10.6c3.1-2.7,7.6-3.1,11.8-3.3c5.2-0.2,10.9-0.5,14.7-4
		c4.6-4.2,4.8-11.6,2.4-17.4s-6.8-10.4-10.6-15.3c-0.7-0.9-1.5-2-1.5-3.2c-0.1-1,0.4-2,1-2.9c3-4.3,9.4-4.6,14.3-2.7
		c4.9,1.9,8.9,5.4,13.6,7.7s10.7,3.3,14.9,0.1c1.8-1.4,3-3.4,4.2-5.4"/>
	<path class="st9" d="M204,164.4c4.4,0.8,5.8,6.7,4,10.8c-1.8,4-5.5,6.8-8.5,10.1c-3,3.3-5.4,8-3.6,12c1,2.2,3,3.7,5,5.1
		c4.1,2.7,9.1,5,13.7,3.5c2-0.6,3.7-1.9,5.7-2.6c1.9-0.8,4.3-1.1,6,0.2c1,0.8,1.6,2,2.3,3.1c1.2,2,2.8,3.9,3,6.3
		c0.3,3.8-3.2,6.9-6.9,7.9c-3.7,1-7.6,0.6-11.3,1.3c-3.7,0.7-7.7,2.9-8.5,6.6"/>
	<path class="st10" d="M175.6,226.9c-0.9-5.2,2.6-10.7,7.7-12.1c4.1-1.2,9.7-0.4,11.7-4.2c1.1-2.1,0.4-4.6-0.4-6.8
		c-2.5-6.4-6.3-12.2-11.2-16.9c-2.8-2.6-5.9-5-7.7-8.3c-2.8-5.1-1.9-11.4-1-17.1"/>
	<path class="st10" d="M141.3,162.1c5.8-3.1,14,2.2,13.6,8.7c-0.4,7.2-9,13.6-6,20.2c0.9,2,2.7,3.4,4.5,4.5
		c3.9,2.4,9.5,3.9,12.8,0.7c2.6-2.4,2.8-6.5,5-9.2c3.1-3.8,9.2-3.6,13.5-1.3s7.4,6.3,11,9.6c4.8,4.5,10.8,8,17.3,8.8
		s13.6-1.2,17.9-6.2"/>
	<path class="st10" d="M234.5,161.8c11.6,0.9,21.1,12.7,19.7,24.2c-0.4,2.8-1.2,5.6-0.4,8.3c0.7,2.4,2.7,4.1,4.8,5.5
		c3.8,2.5,8.1,4.1,12.6,4.6c1.3,0.2,2.6,0.2,3.7,1c1.6,1.1,2,3.2,2.2,5.1c0.5,4.2,0.5,8.4,0.1,12.6c-0.3,3.3-0.6,7.3,2.2,9.1"/>
	<path class="st10" d="M276,170.5c0.8,5,1.2,10.1,1.2,15.1c0,1.6,0,3.2-0.6,4.7c-1.4,3.8-5.5,5.7-9.1,7.4c-4.5,2.1-8.9,4.7-12.3,8.3
		c-3.4,3.6-5.8,8.5-5.4,13.5c0.1,1.2,0.3,2.6-0.3,3.7c-0.7,1.3-2.4,1.8-3.9,2.1c-4.1,0.8-8.3,1.2-12.6,1.2"/>
	<path class="st10" d="M184.3,174.6c1.9-6.3,7.8-10.7,14.1-12.6c6.3-1.9,13-1.7,19.6-1.5c4.6,0.1,9.3,0.3,13.9,0.4
		c1.1,0,2.3,0.1,3.2-0.4c2.3-1.2,2.4-4.4,2.4-7.1c0.1-2.6,1.2-6,3.9-5.9"/>
	<path class="st0" d="M275.5,219h-54c-6.6,0-12-5.4-12-12v-42c0-6.6,5.4-12,12-12h54c6.6,0,12,5.4,12,12v42
		C287.5,213.6,282.1,219,275.5,219z"/>
	<circle class="st0" cx="224.8" cy="172.5" r="4.1"/>
</g>
</svg>
